<svg width="13" height="12" viewBox="0 0 13 12" fill="none" xmlns="http://www.w3.org/2000/svg">
<path d="M12.607 5.62C12.5594 5.49725 12.4881 5.38511 12.397 5.29L7.39701 0.290002C7.30377 0.196764 7.19308 0.122803 7.07126 0.0723429C6.94944 0.0218825 6.81887 -0.00408936 6.68701 -0.00408936C6.42071 -0.00408936 6.16532 0.101699 5.97701 0.290002C5.88377 0.383241 5.80981 0.493931 5.75935 0.615753C5.70889 0.737575 5.68292 0.868143 5.68292 1C5.68292 1.2663 5.78871 1.5217 5.97701 1.71L9.27701 5H1.68701C1.4218 5 1.16744 5.10536 0.979905 5.2929C0.792369 5.48043 0.687012 5.73479 0.687012 6C0.687012 6.26522 0.792369 6.51957 0.979905 6.70711C1.16744 6.89465 1.4218 7 1.68701 7H9.27701L5.97701 10.29C5.88328 10.383 5.80889 10.4936 5.75812 10.6154C5.70735 10.7373 5.68121 10.868 5.68121 11C5.68121 11.132 5.70735 11.2627 5.75812 11.3846C5.80889 11.5064 5.88328 11.617 5.97701 11.71C6.06997 11.8037 6.18058 11.8781 6.30243 11.9289C6.42429 11.9797 6.555 12.0058 6.68701 12.0058C6.81902 12.0058 6.94973 11.9797 7.07159 11.9289C7.19345 11.8781 7.30405 11.8037 7.39701 11.71L12.397 6.71C12.4881 6.6149 12.5594 6.50275 12.607 6.38C12.707 6.13654 12.707 5.86346 12.607 5.62Z" fill="#424242"/>
</svg>
