<?xml version="1.0" encoding="UTF-8" standalone="no"?>
<svg
   height="79.420517"
   width="369.89474"
   version="1.1"
   id="svg4"
   xmlns="http://www.w3.org/2000/svg"
   xmlns:svg="http://www.w3.org/2000/svg">
  <defs
     id="SvgjsDefs1001" />
  <g
     id="SvgjsG1007"
     featurekey="symbolFeature-0"
     transform="matrix(1.0702708,0,0,1.0702708,-7.531576,-14.413337)"
     fill="#f33535">
    <g
       id="g3">
      <path
         fill="#f33535"
         d="m 84.341,13.467 c -26.908,1.188 -36.266,19.399 -37.689,23.676 0,0 8.551,14.26 7.156,17.894 0.839,-2.188 1.607,-4.048 2.348,-5.656 -0.181,-0.613 -0.449,-1.584 -0.719,-2.78 -0.47,-2.089 -0.941,-4.864 -0.942,-7.636 0,-1.31 0.106,-2.62 0.37,-3.858 0.141,-0.656 0.325,-1.292 0.565,-1.897 -0.637,-0.572 -0.729,-1.548 -0.194,-2.233 0.558,-0.716 1.593,-0.844 2.309,-0.285 0.716,0.559 0.844,1.594 0.284,2.31 -0.394,0.505 -1.025,0.717 -1.613,0.601 -0.205,0.533 -0.369,1.099 -0.495,1.688 -0.249,1.163 -0.351,2.413 -0.351,3.676 0,2.589 0.432,5.225 0.877,7.25 0.164,0.75 0.332,1.417 0.479,1.964 2.4,-4.888 4.628,-7.293 8.276,-10.049 l -0.016,-0.015 0.298,-0.319 0.003,-0.003 0.011,-0.01 c 0.009,-0.011 0.021,-0.023 0.039,-0.044 0.034,-0.038 0.087,-0.095 0.153,-0.169 0.134,-0.15 0.328,-0.373 0.57,-0.66 0.485,-0.574 1.158,-1.402 1.908,-2.421 1.245,-1.692 2.704,-3.909 3.865,-6.339 -0.534,-0.434 -0.756,-1.176 -0.501,-1.855 0.321,-0.851 1.27,-1.279 2.119,-0.959 0.852,0.32 1.282,1.269 0.96,2.119 -0.276,0.737 -1.026,1.158 -1.776,1.049 -1.197,2.512 -2.689,4.777 -3.962,6.505 -0.67,0.912 -1.279,1.671 -1.755,2.24 v 0.002 c -1.321,2.63 -2.892,5.002 -4.365,7.919 0.573,-0.061 1.28,-0.156 2.066,-0.3 2.107,-0.388 4.807,-1.143 7.152,-2.579 1.115,-0.683 2.151,-1.517 3.012,-2.536 -0.389,-0.49 -0.482,-1.183 -0.18,-1.777 0.415,-0.81 1.405,-1.131 2.215,-0.716 0.809,0.413 1.129,1.405 0.716,2.213 -0.385,0.751 -1.266,1.082 -2.039,0.793 -0.941,1.128 -2.068,2.037 -3.267,2.77 -1.656,1.012 -3.45,1.694 -5.104,2.153 -2.064,0.573 -3.916,0.807 -5.024,0.9 v 10e-4 C 59.984,50.528 58.151,56.299 57.671,65.886 57.951,60.347 78.907,51.8 78.907,51.8 86.226,27.926 84.341,13.467 84.341,13.467 Z"
         id="path1" />
      <path
         fill="#f33535"
         d="m 18.923,19.807 c -23.563,30.705 -7.797,61.057 10.241,64.968 0,0 13.673,0.722 16.281,2.898 -6.789,-5.664 -11.151,-11.769 -13.95,-17.403 -0.491,0.049 -0.972,0.072 -1.443,0.072 -3.234,0 -6.008,-1.093 -8.205,-2.448 -1.476,-0.911 -2.695,-1.944 -3.627,-2.854 -0.682,0.366 -1.549,0.207 -2.053,-0.416 -0.572,-0.705 -0.463,-1.743 0.243,-2.314 0.706,-0.571 1.743,-0.462 2.314,0.245 0.447,0.553 0.477,1.306 0.132,1.881 0.893,0.871 2.055,1.853 3.451,2.713 2.097,1.296 4.711,2.319 7.745,2.319 0.339,0 0.684,-0.013 1.034,-0.039 -1.863,-3.936 -2.971,-7.612 -3.626,-10.717 -0.585,-0.167 -1.536,-0.471 -2.658,-0.949 -1.867,-0.797 -4.214,-2.077 -6.135,-4.039 -0.918,-0.938 -1.737,-2.032 -2.348,-3.303 -0.815,0.092 -1.59,-0.439 -1.784,-1.257 -0.208,-0.884 0.34,-1.771 1.224,-1.979 0.884,-0.208 1.771,0.338 1.979,1.223 0.155,0.653 -0.104,1.308 -0.606,1.689 0.551,1.125 1.28,2.104 2.104,2.959 1.177,1.218 2.549,2.173 3.867,2.905 1.64,0.913 3.194,1.478 4.161,1.78 -0.125,-2.99 -0.408,-5.313 -0.726,-6.75 -0.046,-0.205 -0.086,-0.42 -0.117,-0.657 -0.073,-0.546 -0.105,-1.202 -0.105,-2.187 0,-1.965 0.129,-5.25 0.365,-11.57 -0.688,-0.219 -1.176,-0.874 -1.148,-1.63 0.034,-0.907 0.796,-1.616 1.705,-1.583 0.907,0.034 1.616,0.796 1.583,1.705 -0.028,0.757 -0.562,1.375 -1.266,1.54 -0.235,6.32 -0.363,9.61 -0.363,11.538 0,0.965 0.032,1.585 0.098,2.071 0.048,0.36 0.113,0.653 0.2,0.973 0.001,0.004 0.003,0.007 0.003,0.01 0.349,1.123 0.828,3.727 4.873,10.771 0.019,-0.02 0.038,-0.038 0.058,-0.058 0.479,-0.485 1.129,-1.244 1.797,-2.336 1.191,-1.943 2.44,-4.936 2.861,-9.3 -0.661,-0.229 -1.126,-0.868 -1.104,-1.603 0.027,-0.909 0.787,-1.622 1.695,-1.595 0.908,0.027 1.622,0.787 1.595,1.694 -0.025,0.776 -0.581,1.411 -1.309,1.561 -0.433,4.507 -1.73,7.644 -2.991,9.702 -0.826,1.346 -1.633,2.229 -2.17,2.735 1.772,3.259 3.97,6.82 6.577,10.174 0.472,-0.485 1.098,-1.228 1.74,-2.275 1.191,-1.944 2.439,-4.935 2.861,-9.3 -0.663,-0.229 -1.126,-0.868 -1.104,-1.604 0.026,-0.907 0.786,-1.622 1.694,-1.595 0.908,0.028 1.622,0.787 1.594,1.693 -0.023,0.776 -0.581,1.412 -1.309,1.563 -0.433,4.506 -1.729,7.644 -2.989,9.698 -0.716,1.166 -1.417,1.984 -1.941,2.513 2.752,3.437 5.941,6.611 9.542,8.954 1.569,-5.041 1.904,-9.865 1.904,-9.865 3.6,-40.543 -32.444,-52.921 -32.444,-52.921 z"
         id="path2" />
      <path
         fill="#f33535"
         d="m 57.288,73.593 c 0,0 -1.847,4.824 -2.855,10.158 4.126,-1.544 8.255,-3.825 11.972,-6.185 l -0.103,0.025 c -0.006,-0.028 -0.159,-0.679 -0.159,-1.759 0,-1.024 0.139,-2.437 0.673,-4.06 0.407,-1.232 1.042,-2.584 2.019,-3.979 -0.47,-0.621 -0.442,-1.508 0.102,-2.102 0.614,-0.669 1.655,-0.715 2.325,-0.1 0.669,0.613 0.714,1.654 0.101,2.324 -0.479,0.522 -1.217,0.663 -1.835,0.411 -0.91,1.311 -1.5,2.572 -1.879,3.719 -0.502,1.521 -0.63,2.839 -0.63,3.785 0,0.583 0.047,1.025 0.087,1.286 3.746,-2.419 9.367,-6.709 9.367,-6.709 0.942,-0.777 0.963,-1.261 2.688,-2.866 1.439,-1.339 3.419,-2.929 5.846,-4.26 -0.15,-0.747 0.236,-1.522 0.963,-1.834 0.834,-0.36 1.803,0.026 2.162,0.858 0.359,0.836 -0.024,1.803 -0.859,2.163 -0.663,0.284 -1.411,0.1 -1.869,-0.406 -2.29,1.261 -4.179,2.764 -5.566,4.047 -0.359,0.331 -0.687,0.646 -0.977,0.94 -1.416,1.602 -3.851,4.38 -7.429,7.842 0.415,0.093 0.992,0.178 1.699,0.178 0.999,0 2.257,-0.166 3.712,-0.72 1.095,-0.417 2.304,-1.052 3.594,-2.008 -0.271,-0.622 -0.139,-1.372 0.386,-1.861 0.665,-0.619 1.706,-0.583 2.326,0.082 0.619,0.664 0.583,1.705 -0.082,2.325 -0.583,0.543 -1.455,0.581 -2.079,0.134 -1.361,1.013 -2.651,1.696 -3.835,2.146 -1.556,0.59 -2.926,0.776 -4.021,0.776 -1.144,0 -1.99,-0.2 -2.44,-0.343 -3.146,2.993 -7.111,6.447 -11.975,10.068 0.708,-0.036 1.428,-0.102 2.15,-0.207 C 89.875,86.465 93.095,58.622 93.095,58.622 72.151,54.671 63.543,61.018 57.288,73.593 Z"
         id="path3" />
    </g>
  </g>
  <g
     id="SvgjsG1008"
     featurekey="nameFeature-0"
     transform="matrix(1.5611536,0,0,1.5611536,109.53027,1.6202418)"
     fill="#f33535">
    <path
       d="M 9.4141,8.613 H 9.394569 c 4.2188,0 7.7539,3.4961 7.832,7.6758 0,0.83984 -0.29297,1.8164 -0.54688,2.5977 3.5938,1.5625 6.8164,5.1172 6.8164,10.098 0,3.0078 -1.0742,5.5859 -3.2227,7.7344 -2.1485,2.1485 -4.7266,3.2227 -7.7344,3.2227 h -10.957 V 8.6136 h 7.832 z M 7.832,18.633 h 1.5625 c 1.0547,0 1.8945,-0.80078 1.8945,-1.8359 0,-1.0547 -0.83984,-1.9336 -1.8945,-1.9336 H 7.832 Z m 4.688,15.0389 c 2.5781,0 4.707,-2.1094 4.707,-4.668 0,-1.3086 -0.46875,-2.4219 -1.3867,-3.3398 C 14.92235,24.7462 13.809,24.68754 12.52,24.68754 H 7.8325 v 8.9844 H 12.52 Z M 25.859375,40 V 8.516 h 6.3086 V 40 Z m 9.433594,-32.07 18.887,17.988 V 8.516 h 6.3086 v 32.07 l -18.887,-18.008 V 40 h -6.3086 z m 28.320312,0.586 h 6.3086 v 25.176 h 12.578 v 6.3086 h -18.887 V 8.5166 Z M 95.54725,29.59 h 5.5664 l -2.7734,-6.543 z m -2.5785,5.5662 -0.07813,0.23438 -2.0508,4.5313 h -1.0938 -0.25391 -4.1016 -1.3477 l 14.277,-31.992 14.31599,31.992 h -1.3477 -4.1016 -0.27344 -1.0938 l -2.0313,-4.5508 -0.0977,-0.21484 H 92.967319 Z M 115,7.93 133.887,25.918 V 8.516 h 6.3086 v 32.07 L 121.3086,22.578 V 40 H 115 Z m 36.07421,0.664 V 8.574469 c 4.3164,0 8.3984,1.543 11.484,4.6289 5.625,5.625 5.625,16.582 0,22.188 -3.0859,3.0664 -7.168,4.6094 -11.484,4.6094 h -7.7734 v -31.406 h 7.7734 z m 0.0195,25.0974 h 0.0195 c 2.5781,0 4.9609,-0.72266 6.7969,-2.5586 1.836,-1.83594 2.5586,-4.2578 2.5586,-6.8555 0,-2.5781 -0.72266,-5 -2.5781,-6.8555 -1.8359,-1.8555 -4.2578,-2.5781 -6.8359,-2.5781 h -1.4453 v 18.848 h 1.4844 z"
       id="path4" />
  </g>
</svg>
