<?xml version="1.0" encoding="UTF-8" standalone="no"?>
<svg
   height="34.95"
   width="176.8"
   version="1.1"
   id="svg4"
   xmlns="http://www.w3.org/2000/svg"
   xmlns:svg="http://www.w3.org/2000/svg">
  <g
     id="SvgjsG1008"
     featurekey="nameFeature-0"
     transform="matrix(1.0702708,0,0,1.0702708,-1.531576,-8.95)"
     fill="#f33535">
    <path
       d="M 9.4141,8.613 H 9.394569 c 4.2188,0 7.7539,3.4961 7.832,7.6758 0,0.83984 -0.29297,1.8164 -0.54688,2.5977 3.5938,1.5625 6.8164,5.1172 6.8164,10.098 0,3.0078 -1.0742,5.5859 -3.2227,7.7344 -2.1485,2.1485 -4.7266,3.2227 -7.7344,3.2227 h -10.957 V 8.6136 h 7.832 z M 7.832,18.633 h 1.5625 c 1.0547,0 1.8945,-0.80078 1.8945,-1.8359 0,-1.0547 -0.83984,-1.9336 -1.8945,-1.9336 H 7.832 Z m 4.688,15.0389 c 2.5781,0 4.707,-2.1094 4.707,-4.668 0,-1.3086 -0.46875,-2.4219 -1.3867,-3.3398 C 14.92235,24.7462 13.809,24.68754 12.52,24.68754 H 7.8325 v 8.9844 H 12.52 Z M 25.859375,40 V 8.516 h 6.3086 V 40 Z m 9.433594,-32.07 18.887,17.988 V 8.516 h 6.3086 v 32.07 l -18.887,-18.008 V 40 h -6.3086 z m 28.320312,0.586 h 6.3086 v 25.176 h 12.578 v 6.3086 h -18.887 V 8.5166 Z M 95.54725,29.59 h 5.5664 l -2.7734,-6.543 z m -2.5785,5.5662 -0.07813,0.23438 -2.0508,4.5313 h -1.0938 -0.25391 -4.1016 -1.3477 l 14.277,-31.992 14.31599,31.992 h -1.3477 -4.1016 -0.27344 -1.0938 l -2.0313,-4.5508 -0.0977,-0.21484 H 92.967319 Z M 115,7.93 133.887,25.918 V 8.516 h 6.3086 v 32.07 L 121.3086,22.578 V 40 H 115 Z m 36.07421,0.664 V 8.574469 c 4.3164,0 8.3984,1.543 11.484,4.6289 5.625,5.625 5.625,16.582 0,22.188 -3.0859,3.0664 -7.168,4.6094 -11.484,4.6094 h -7.7734 v -31.406 h 7.7734 z m 0.0195,25.0974 h 0.0195 c 2.5781,0 4.9609,-0.72266 6.7969,-2.5586 1.836,-1.83594 2.5586,-4.2578 2.5586,-6.8555 0,-2.5781 -0.72266,-5 -2.5781,-6.8555 -1.8359,-1.8555 -4.2578,-2.5781 -6.8359,-2.5781 h -1.4453 v 18.848 h 1.4844 z"
       id="path4" />
  </g>
</svg>
