<svg width="134" height="40" viewBox="0 0 134 40" fill="none" xmlns="http://www.w3.org/2000/svg">
<g id="amazon" clip-path="url(#clip0_52_236)">
<path id="path8" d="M83.1187 31.2493C75.4265 36.9191 64.2772 39.9441 54.6778 39.9441C41.2179 39.9441 29.1005 34.9658 19.9332 26.6859C19.213 26.0348 19.8583 25.1474 20.7226 25.6545C30.6159 31.4107 42.8485 34.8736 55.4844 34.8736C64.0063 34.8736 73.381 33.1104 82.0009 29.4516C83.3031 28.8985 84.3921 30.3044 83.1187 31.2493Z" fill="#424242"/>
<path id="path10" d="M86.3166 27.5905C85.3371 26.3344 79.8171 26.997 77.3395 27.2909C76.5847 27.3831 76.4694 26.7262 77.1493 26.2537C81.5457 23.1596 88.7597 24.0527 89.6009 25.0898C90.4421 26.1327 89.382 33.364 85.2506 36.8154C84.6168 37.3455 84.0118 37.0631 84.2942 36.3602C85.2218 34.0439 87.3019 28.8524 86.3166 27.5905Z" fill="#424242"/>
<path id="path12" d="M77.5123 4.41016V1.40242C77.5123 0.947228 77.8581 0.641846 78.2729 0.641846H91.7386C92.1707 0.641846 92.5164 0.952991 92.5164 1.40242V3.97801C92.5107 4.41016 92.1477 4.97483 91.5023 5.86793L84.5246 15.8303C87.1175 15.767 89.8544 16.153 92.2053 17.4782C92.7354 17.7779 92.8794 18.2158 92.9198 18.6479V21.8573C92.9198 22.2952 92.4358 22.808 91.9287 22.543C87.7859 20.3707 82.2832 20.1345 77.7025 22.566C77.2358 22.8196 76.746 22.3125 76.746 21.8746V18.8265C76.746 18.3368 76.7518 17.5013 77.2415 16.758L85.3255 5.16497H78.2902C77.8581 5.16497 77.5123 4.85959 77.5123 4.41016Z" fill="#424242"/>
<path id="path14" d="M28.3918 23.1767H24.295C23.9032 23.1479 23.5921 22.8541 23.5633 22.4796V1.45423C23.5633 1.0336 23.9147 0.699408 24.3526 0.699408H28.1728C28.5704 0.716682 28.8873 1.02208 28.9161 1.40236V4.15081H28.991C29.9878 1.49455 31.8605 0.255737 34.3842 0.255737C36.9483 0.255737 38.5501 1.49455 39.7025 4.15081C40.6935 1.49455 42.9464 0.255737 45.3607 0.255737C47.0778 0.255737 48.9562 0.964456 50.1028 2.55475C51.3992 4.32367 51.1342 6.8935 51.1342 9.14642L51.1284 22.4162C51.1284 22.8368 50.7769 23.1767 50.339 23.1767H46.248C45.8389 23.1479 45.5105 22.8195 45.5105 22.4162V11.2726C45.5105 10.3852 45.5912 8.17265 45.3953 7.3314C45.0899 5.91973 44.1737 5.52215 42.9868 5.52215C41.9957 5.52215 40.9586 6.18478 40.538 7.24498C40.1173 8.30517 40.1577 10.0798 40.1577 11.2726V22.4162C40.1577 22.8368 39.8062 23.1767 39.3683 23.1767H35.2773C34.8624 23.1479 34.5398 22.8195 34.5398 22.4162L34.534 11.2726C34.534 8.92746 34.92 5.47606 32.0103 5.47606C29.0659 5.47606 29.1812 8.84103 29.1812 11.2726V22.4162C29.1812 22.8368 28.8297 23.1767 28.3918 23.1767Z" fill="#424242"/>
<path id="path16" d="M104.109 0.255737C110.188 0.255737 113.478 5.47606 113.478 12.1138C113.478 18.5269 109.843 23.6147 104.109 23.6147C98.1401 23.6147 94.8904 18.3943 94.8904 11.8891C94.8904 5.34353 98.1804 0.255737 104.109 0.255737ZM104.144 4.54839C101.125 4.54839 100.935 8.66241 100.935 11.2265C100.935 13.7963 100.894 19.2817 104.109 19.2817C107.284 19.2817 107.434 14.8565 107.434 12.1599C107.434 10.3852 107.359 8.26484 106.823 6.58235C106.362 5.11882 105.446 4.54839 104.144 4.54839Z" fill="#424242"/>
<path id="path18" d="M121.361 23.1767H117.281C116.872 23.1479 116.544 22.8195 116.544 22.4162L116.538 1.38508C116.573 0.999027 116.913 0.699408 117.327 0.699408H121.124C121.482 0.716682 121.776 0.958696 121.856 1.28713V4.50229H121.931C123.078 1.62708 124.685 0.255737 127.514 0.255737C129.353 0.255737 131.145 0.918362 132.297 2.73337C133.369 4.41586 133.369 7.24498 133.369 9.27894V22.5141C133.323 22.8829 132.983 23.1767 132.579 23.1767H128.471C128.096 23.1479 127.785 22.8714 127.745 22.5141V11.094C127.745 8.79494 128.01 5.42996 125.181 5.42996C124.184 5.42996 123.268 6.09835 122.813 7.11245C122.237 8.39737 122.162 9.67652 122.162 11.094V22.4162C122.156 22.8368 121.799 23.1767 121.361 23.1767Z" fill="#424242"/>
<path id="use28" d="M66.7778 13.1337V12.2464C63.8162 12.2464 60.6875 12.8802 60.6875 16.3719C60.6875 18.1408 61.6036 19.3393 63.1766 19.3393C64.329 19.3393 65.3604 18.6306 66.0115 17.4782C66.8182 16.0608 66.7778 14.7297 66.7778 13.1337ZM70.9092 23.1191C70.6384 23.3611 70.2465 23.3784 69.9412 23.2171C68.5813 22.0878 68.3393 21.5634 67.5903 20.4859C65.3431 22.7792 63.7528 23.4649 60.8373 23.4649C57.3916 23.4649 54.7066 21.3387 54.7066 17.0806C54.7066 13.756 56.5101 11.4915 59.0741 10.3852C61.2982 9.40571 64.4039 9.23285 66.7778 8.96204V8.43194C66.7778 7.45817 66.8528 6.30578 66.2823 5.46454C65.781 4.70973 64.8245 4.39858 63.9833 4.39858C62.4218 4.39858 61.0274 5.19949 60.6875 6.85893C60.6183 7.2277 60.3475 7.5907 59.9788 7.60799L56.003 7.1816C55.6688 7.1067 55.3001 6.83588 55.3922 6.32307C56.3084 1.50609 60.6587 0.0540771 64.5537 0.0540771C66.5474 0.0540771 69.1518 0.584176 70.7248 2.0938C72.7184 3.95491 72.5283 6.43831 72.5283 9.14066V15.5249C72.5283 17.4436 73.3234 18.2849 74.0725 19.322C74.3375 19.6908 74.3951 20.1345 74.0609 20.411C73.2255 21.1082 71.7389 22.4047 70.9207 23.1307L70.9092 23.1191Z" fill="#424242"/>
<path id="path30" d="M13.0708 13.1337V12.2464C10.1091 12.2464 6.98039 12.8802 6.98039 16.3719C6.98039 18.1408 7.89653 19.3393 9.46955 19.3393C10.6219 19.3393 11.6533 18.6306 12.3044 17.4782C13.1111 16.0608 13.0708 14.7297 13.0708 13.1337ZM17.2021 23.1191C16.9313 23.3611 16.5394 23.3784 16.2341 23.2171C14.8743 22.0878 14.6322 21.5634 13.8832 20.4859C11.636 22.7792 10.0457 23.4649 7.1302 23.4649C3.68455 23.4649 0.999489 21.3387 0.999489 17.0806C0.999489 13.756 2.80298 11.4915 5.36704 10.3852C7.59115 9.40571 10.6968 9.23285 13.0708 8.96204V8.43194C13.0708 7.45817 13.1457 6.30578 12.5752 5.46454C12.0739 4.70973 11.1175 4.39858 10.2762 4.39858C8.71473 4.39858 7.32034 5.19949 6.98039 6.85893C6.91124 7.2277 6.64043 7.5907 6.27167 7.60799L2.29593 7.1816C1.96173 7.1067 1.59297 6.83588 1.68516 6.32307C2.60131 1.50609 6.95157 0.0540771 10.8467 0.0540771C12.8403 0.0540771 15.4447 0.584176 17.0177 2.0938C19.0113 3.95491 18.8212 6.43831 18.8212 9.14066V15.5249C18.8212 17.4436 19.6163 18.2849 20.3654 19.322C20.6304 19.6908 20.6881 20.1345 20.3539 20.411C19.5184 21.1082 18.0318 22.4047 17.2136 23.1307L17.2021 23.1191Z" fill="#424242"/>
</g>
<defs>
<clipPath id="clip0_52_236">
<rect width="132.527" height="40" fill="white" transform="translate(0.919495)"/>
</clipPath>
</defs>
</svg>
