<svg width="162" height="40" viewBox="0 0 162 40" fill="none" xmlns="http://www.w3.org/2000/svg">
<g id="github">
<path id="Vector" d="M99.4778 30.8207H99.424C99.4509 30.8207 99.4509 30.8476 99.4778 30.8476H99.5047L99.4778 30.8207ZM99.4778 30.8476C99.2625 30.8476 98.6972 30.9553 98.105 30.9553C96.2477 30.9553 95.6016 30.0939 95.6016 28.9634V21.4802H99.3971C99.6124 21.4802 99.7739 21.2918 99.7739 21.0226V16.958C99.7739 16.7427 99.5855 16.5543 99.3971 16.5543H95.6016V11.4937C95.6016 11.3053 95.4671 11.1976 95.2517 11.1976H90.0835C89.8682 11.1976 89.7605 11.3322 89.7605 11.4937V16.6889C89.7605 16.6889 87.1495 17.3349 86.9879 17.3618C86.7995 17.4156 86.6918 17.5771 86.6918 17.7656V21.0226C86.6918 21.2918 86.8803 21.4802 87.0956 21.4802H89.7336V29.3402C89.7336 35.1814 93.7981 35.7736 96.5707 35.7736C97.8358 35.7736 99.3701 35.3698 99.6124 35.2352C99.747 35.1814 99.8277 35.0199 99.8277 34.8584V31.2783C99.8277 31.063 99.6932 30.9015 99.4778 30.8476ZM156.167 25.5987C156.167 21.2649 154.417 20.6996 152.587 20.888C151.16 20.9688 150.003 21.6956 150.003 21.6956V30.1208C150.003 30.1208 151.16 30.9284 152.91 30.9822C155.359 31.0361 156.167 30.1478 156.167 25.5987ZM161.981 25.2218C161.981 33.4317 159.316 35.7736 154.686 35.7736C150.756 35.7736 148.657 33.7817 148.657 33.7817C148.657 33.7817 148.576 34.8853 148.441 35.0199C148.361 35.1545 148.253 35.2083 148.091 35.2083H144.565C144.323 35.2083 144.108 35.0199 144.108 34.8046L144.161 8.23667C144.161 8.02132 144.35 7.8329 144.565 7.8329H149.653C149.868 7.8329 150.056 8.02132 150.056 8.23667V17.2541C150.056 17.2541 152.021 15.989 154.902 15.989L154.875 15.9352C157.728 15.9352 161.981 17.0119 161.981 25.2218ZM141.12 16.5812H136.086C135.817 16.5812 135.682 16.7696 135.682 17.0388V30.0401C135.682 30.0401 134.363 30.9553 132.56 30.9553C130.783 30.9553 130.245 30.1478 130.245 28.3443V16.985C130.245 16.7696 130.056 16.5812 129.841 16.5812H124.727C124.511 16.5812 124.323 16.7696 124.323 16.985V29.2326C124.323 34.4815 127.257 35.8005 131.295 35.8005C134.632 35.8005 137.324 33.9701 137.324 33.9701C137.324 33.9701 137.459 34.9122 137.513 35.0468C137.567 35.1545 137.728 35.2622 137.89 35.2622H141.093C141.362 35.2622 141.497 35.0737 141.497 34.8584L141.55 16.985C141.577 16.7696 141.362 16.5812 141.12 16.5812ZM84.4308 16.5543H79.3433C79.1279 16.5543 78.9395 16.7696 78.9395 17.0388V34.5892C78.9395 35.0737 79.2625 35.2352 79.6663 35.2352H84.2692C84.7538 35.2352 84.8614 35.0199 84.8614 34.5892V16.958C84.8345 16.7427 84.6461 16.5543 84.4308 16.5543ZM81.9005 8.45201C80.0701 8.45201 78.5896 9.90557 78.5896 11.7629C78.5896 13.5933 80.0431 15.0738 81.9005 15.0738C83.704 15.0738 85.1575 13.6202 85.1575 11.7629C85.1575 9.93249 83.704 8.45201 81.9005 8.45201ZM121.362 7.85982H116.301C116.086 7.85982 115.898 8.04824 115.898 8.26359V18.0347H107.984V8.26359C107.984 8.04824 107.795 7.85982 107.58 7.85982H102.493C102.277 7.85982 102.089 8.04824 102.089 8.26359V34.8315C102.089 35.0468 102.304 35.2352 102.493 35.2352H107.58C107.795 35.2352 107.984 35.0468 107.984 34.8315V23.4722H115.898L115.844 34.8315C115.844 35.0468 116.032 35.2352 116.248 35.2352H121.335C121.55 35.2352 121.739 35.0468 121.739 34.8315V8.26359C121.766 8.04824 121.577 7.85982 121.362 7.85982ZM76.2208 19.6229V33.351C76.2208 33.4317 76.1939 33.6202 76.0862 33.6471C76.0862 33.6471 73.0983 35.7736 68.1724 35.7736C62.2235 35.7736 55.1442 33.9163 55.1442 21.6148C55.1442 9.31338 61.3083 6.78311 67.3379 6.81003C72.56 6.81003 74.6596 7.9944 74.9826 8.20975C75.0634 8.34434 75.1172 8.42509 75.1172 8.53276L74.1481 12.8127C74.1481 13.028 73.9328 13.2972 73.6636 13.2165C72.8023 12.9473 71.5102 12.4358 68.4685 12.4358C64.9422 12.4358 61.1738 13.4318 61.1738 21.3726C61.1738 29.2864 64.7538 30.2285 67.3379 30.2285C69.5452 30.2285 70.3258 29.9593 70.3258 29.9593V24.4681H66.7996C66.5304 24.4681 66.342 24.2797 66.342 24.0643V19.6498C66.342 19.4345 66.5304 19.2461 66.7996 19.2461H75.7632C76.0324 19.2191 76.2208 19.4076 76.2208 19.6229Z" fill="#424242"/>
<path id="Vector_2" fill-rule="evenodd" clip-rule="evenodd" d="M20.9583 0C9.62593 0 0.44696 9.17898 0.44696 20.5114C0.44696 29.5827 6.31504 37.2543 14.4711 39.9729C15.494 40.1345 15.8978 39.5423 15.8978 39.0039C15.8978 38.5194 15.8709 36.9043 15.8709 35.1816C10.7296 36.1237 9.38368 33.9164 8.97991 32.7859C8.73765 32.1937 7.74169 30.3633 6.88032 29.8788C6.15354 29.5019 5.13066 28.5329 6.8534 28.506C8.46847 28.479 9.62594 29.9864 10.0028 30.6056C11.8601 33.7011 14.7942 32.8397 15.9785 32.3014C16.167 30.9824 16.7053 30.0672 17.2975 29.5558C12.7484 29.0443 7.95703 27.2677 7.95703 19.4347C7.95703 17.2005 8.76457 15.3432 10.0566 13.9165C9.84128 13.4051 9.14141 11.3055 10.272 8.47911C10.272 8.47911 11.9947 7.94076 15.9247 10.5787C17.5667 10.1211 19.3163 9.87884 21.0391 9.87884C22.7887 9.87884 24.5115 10.1211 26.1535 10.5787C30.0835 7.91384 31.7793 8.47911 31.7793 8.47911C32.9098 11.3055 32.1831 13.4051 31.9946 13.9165C33.3136 15.3432 34.0942 17.1736 34.0942 19.4347C34.0942 27.2947 29.3029 29.0443 24.7268 29.5558C25.4805 30.2018 26.1266 31.4131 26.1266 33.3512C26.1266 36.0968 26.0996 38.3041 26.0996 38.977C26.0996 39.5154 26.4765 40.1614 27.4994 39.946C35.8439 37.1197 41.4697 29.2866 41.4697 20.4845C41.4697 9.17898 32.2907 0 20.9583 0Z" fill="#424242"/>
</g>
</svg>
