<svg width="119" height="40" viewBox="0 0 119 40" fill="none" xmlns="http://www.w3.org/2000/svg">
<g id="google" clip-path="url(#clip0_52_237)">
<path id="Vector" d="M50.558 20.5131C50.558 26.0653 46.2145 30.1566 40.8841 30.1566C35.5537 30.1566 31.2102 26.0653 31.2102 20.5131C31.2102 14.9218 35.5537 10.8696 40.8841 10.8696C46.2145 10.8696 50.558 14.9218 50.558 20.5131ZM46.3232 20.5131C46.3232 17.0435 43.8058 14.6696 40.8841 14.6696C37.9624 14.6696 35.445 17.0435 35.445 20.5131C35.445 23.9479 37.9624 26.3566 40.8841 26.3566C43.8058 26.3566 46.3232 23.9435 46.3232 20.5131Z" fill="#424242"/>
<path id="Vector_2" d="M71.4276 20.5131C71.4276 26.0653 67.0841 30.1566 61.7537 30.1566C56.4232 30.1566 52.0798 26.0653 52.0798 20.5131C52.0798 14.9262 56.4232 10.8696 61.7537 10.8696C67.0841 10.8696 71.4276 14.9218 71.4276 20.5131ZM67.1928 20.5131C67.1928 17.0435 64.6754 14.6696 61.7537 14.6696C58.8319 14.6696 56.3145 17.0435 56.3145 20.5131C56.3145 23.9479 58.8319 26.3566 61.7537 26.3566C64.6754 26.3566 67.1928 23.9435 67.1928 20.5131Z" fill="#424242"/>
<path id="Vector_3" d="M91.4276 11.4522V28.7653C91.4276 35.887 87.2276 38.7957 82.2624 38.7957C77.5884 38.7957 74.7754 35.6696 73.7145 33.1131L77.4015 31.5783C78.058 33.1479 79.6667 35.0001 82.258 35.0001C85.4363 35.0001 87.4058 33.0392 87.4058 29.3479V27.9609H87.258C86.3102 29.1305 84.4841 30.1522 82.1797 30.1522C77.358 30.1522 72.9406 25.9522 72.9406 20.5479C72.9406 15.1044 77.358 10.8696 82.1797 10.8696C84.4797 10.8696 86.3058 11.8914 87.258 13.0262H87.4058V11.4566H91.4276V11.4522ZM87.7058 20.5479C87.7058 17.1522 85.4406 14.6696 82.558 14.6696C79.6363 14.6696 77.1884 17.1522 77.1884 20.5479C77.1884 23.9088 79.6363 26.3566 82.558 26.3566C85.4406 26.3566 87.7058 23.9088 87.7058 20.5479Z" fill="#424242"/>
<path id="Vector_4" d="M98.058 1.30444V29.5653H93.9276V1.30444H98.058Z" fill="#424242"/>
<path id="Vector_5" d="M114.154 23.687L117.441 25.8783C116.38 27.4478 113.823 30.1522 109.406 30.1522C103.928 30.1522 99.8363 25.9174 99.8363 20.5087C99.8363 14.7739 103.962 10.8652 108.932 10.8652C113.936 10.8652 116.384 14.8478 117.184 17L117.623 18.0957L104.732 23.4348C105.719 25.3696 107.254 26.3565 109.406 26.3565C111.562 26.3565 113.058 25.2957 114.154 23.687ZM104.036 20.2174L112.654 16.6391C112.18 15.4348 110.754 14.5957 109.075 14.5957C106.923 14.5957 103.928 16.4957 104.036 20.2174Z" fill="#424242"/>
<path id="Vector_6" d="M15.5754 18.0043V13.913H29.3624C29.4972 14.6261 29.5667 15.4696 29.5667 16.3826C29.5667 19.4522 28.7276 23.2478 26.0232 25.9522C23.3928 28.6913 20.0319 30.1522 15.5798 30.1522C7.32759 30.1522 0.388458 23.4304 0.388458 15.1783C0.388458 6.92608 7.32759 0.204346 15.5798 0.204346C20.145 0.204346 23.3972 1.99565 25.8406 4.33043L22.9537 7.21739C21.2015 5.57391 18.8276 4.29565 15.5754 4.29565C9.54933 4.29565 4.83628 9.15217 4.83628 15.1783C4.83628 21.2043 9.54933 26.0609 15.5754 26.0609C19.4841 26.0609 21.7102 24.4913 23.1363 23.0652C24.2928 21.9087 25.0537 20.2565 25.3537 18L15.5754 18.0043Z" fill="#424242"/>
</g>
<defs>
<clipPath id="clip0_52_237">
<rect width="118.261" height="40" fill="white" transform="translate(0.231934)"/>
</clipPath>
</defs>
</svg>
