<svg width="149" height="30" viewBox="0 0 149 30" fill="none" xmlns="http://www.w3.org/2000/svg">
<g id="meta" clip-path="url(#clip0_52_238)">
<path id="Logo0" d="M4.89752 19.7843C4.89752 21.5089 5.27605 22.833 5.77081 23.634C6.41951 24.6832 7.38704 25.1277 8.37343 25.1277C9.64568 25.1277 10.8096 24.812 13.0525 21.7099C14.8493 19.2236 16.9666 15.7335 18.3912 13.5455L20.8038 9.83874C22.4797 7.2644 24.4195 4.40262 26.6436 2.46283C28.4593 0.879581 30.4179 0 32.3891 0C35.6986 0 38.8509 1.9178 41.2635 5.51466C43.9038 9.45393 45.1855 14.4157 45.1855 19.5361C45.1855 22.5801 44.5855 24.8168 43.5645 26.5838C42.5781 28.2927 40.6556 30 37.4216 30V25.1277C40.1907 25.1277 40.8818 22.5832 40.8818 19.6712C40.8818 15.5215 39.9143 10.9162 37.7829 7.62565C36.2703 5.29162 34.3101 3.86545 32.1535 3.86545C29.8211 3.86545 27.9441 5.62461 25.8347 8.76126C24.7132 10.4277 23.5619 12.4586 22.2692 14.7503L20.8462 17.2712C17.9876 22.3398 17.2635 23.4942 15.8342 25.3995C13.3289 28.7356 11.1897 30 8.37343 30C5.03259 30 2.92003 28.5534 1.61165 26.3733C0.543589 24.5969 0.0189819 22.266 0.0189819 19.6099L4.89752 19.7843Z" fill="#424242"/>
<path id="Logo1" d="M3.86559 5.85864C6.10223 2.41099 9.32998 0 13.0321 0C15.1761 0 17.3075 0.634555 19.5331 2.45183C21.9677 4.43874 24.5624 7.71047 27.7996 13.1026L28.9604 15.0377C31.7624 19.7058 33.3567 22.1073 34.2897 23.2398C35.4897 24.6942 36.33 25.1277 37.4216 25.1277C40.1907 25.1277 40.8818 22.5832 40.8818 19.6712L45.1855 19.5361C45.1855 22.5801 44.5855 24.8168 43.5645 26.5838C42.5782 28.2927 40.6556 30 37.4216 30C35.4111 30 33.63 29.5634 31.6604 27.7052C30.1462 26.2791 28.3761 23.7455 27.0143 21.4681L22.9635 14.7016C20.931 11.3058 19.0666 8.77382 17.9876 7.62722C16.8268 6.39424 15.3347 4.90524 12.9535 4.90524C11.0263 4.90524 9.38967 6.25759 8.02004 8.32618L3.86559 5.85864Z" fill="#424242"/>
<path id="Logo2" d="M12.9535 4.90524C11.0263 4.90524 9.38966 6.25759 8.02003 8.32618C6.08338 11.2492 4.89752 15.6031 4.89752 19.7843C4.89752 21.5089 5.27605 22.833 5.77081 23.634L1.61165 26.3733C0.543589 24.5969 0.0189819 22.266 0.0189819 19.6099C0.0189819 14.7801 1.34464 9.74607 3.86558 5.85864C6.10223 2.41099 9.32998 0 13.0321 0L12.9535 4.90524Z" fill="#424242"/>
<path id="Text" d="M54.6693 0.94873H60.3127L69.908 18.3079L79.5049 0.94873H85.0258V29.4723H80.4221V7.61156L72.0064 22.7498H67.6871L59.2729 7.61156V29.4723H54.6693V0.94873ZM99.4509 11.5838C96.1494 11.5838 94.1609 14.0686 93.685 17.1456H104.89C104.659 13.976 102.831 11.5838 99.4509 11.5838ZM89.1206 18.8985C89.1206 12.4241 93.3049 7.71208 99.531 7.71208C105.655 7.71208 109.312 12.3644 109.312 19.244V20.5084H93.685C94.2394 23.8555 96.4604 26.111 100.042 26.111C102.899 26.111 104.684 25.2393 106.378 23.6451L108.823 26.6404C106.519 28.7592 103.588 29.9812 99.8782 29.9812C93.1384 29.9812 89.1206 25.0665 89.1206 18.8985ZM114.894 11.9922H110.656V8.22255H114.894V1.98852H119.336V8.22255H125.774V11.9922H119.336V21.5466C119.336 24.8089 120.379 25.9681 122.942 25.9681C124.112 25.9681 124.783 25.8676 125.774 25.7027V29.4315C124.539 29.7801 123.361 29.9404 122.086 29.9404C117.291 29.9404 114.894 27.3205 114.894 22.076V11.9922ZM144.478 15.6582C143.585 13.4058 141.595 11.7472 138.671 11.7472C134.87 11.7472 132.437 14.444 132.437 18.8372C132.437 23.1205 134.677 25.9477 138.489 25.9477C141.485 25.9477 143.625 24.2042 144.478 22.0351V15.6582ZM148.92 29.4723H144.559V26.4974C143.34 28.2487 141.123 29.9812 137.531 29.9812C131.754 29.9812 127.893 25.1451 127.893 18.8372C127.893 12.4697 131.846 7.71208 137.776 7.71208C140.706 7.71208 143.006 8.88381 144.559 10.9524V8.22255H148.92V29.4723Z" fill="#424242"/>
</g>
<defs>
<clipPath id="clip0_52_238">
<rect width="148.901" height="30" fill="white" transform="translate(0.0189819)"/>
</clipPath>
</defs>
</svg>
