<svg width="190" height="40" viewBox="0 0 190 40" fill="none" xmlns="http://www.w3.org/2000/svg">
<g id="g887">
<path id="path2" d="M78.8976 31.9076H73.9614L69.1481 13.5861L64.2818 31.9076H59.2365L52.6184 8.09326H57.0957L61.8682 27.036L67.0784 8.09326H71.6007L76.4981 27.1484L81.0307 8.09326H85.3538L78.8976 31.9076Z" fill="#424242"/>
<path id="path4" d="M91.682 9.83542C91.682 10.4792 91.4448 11.0157 90.9704 11.445C90.5074 11.8742 89.9426 12.0888 89.2762 12.0888C88.6098 12.0888 88.0451 11.8741 87.582 11.445C87.1189 11.0157 86.8874 10.4792 86.8874 9.83542C86.8874 9.18034 87.1189 8.63256 87.582 8.192C88.0564 7.75151 88.6212 7.53125 89.2762 7.53125C89.9652 7.53125 90.5356 7.75718 90.9874 8.20894C91.4505 8.66076 91.682 9.20293 91.682 9.83542ZM87.2165 31.9069V14.7449H91.2176V31.9069H87.2165Z" fill="#424242"/>
<path id="path6" d="M106.616 31.9077V22.3523C106.616 19.8486 105.84 17.6889 103.318 17.6889C100.808 17.6889 99.2175 19.9482 99.2175 22.2337V31.9073H95.3038V14.7452H99.2175V17.1728H99.2853C100.584 15.1619 102.459 14.4558 104.91 14.4558C106.751 14.4558 108.174 14.909 109.179 16.0836C110.196 17.2583 110.642 19.0428 110.642 21.4374V31.907L106.616 31.9077Z" fill="#424242"/>
<path id="path8" d="M126.269 31.9077V29.6985H126.201C124.959 31.788 122.422 32.2698 120.654 32.2698C115.399 32.2698 113.471 28.1876 113.471 23.8434C113.471 20.9632 114.188 18.6591 115.623 16.931C117.068 15.1916 119 14.4387 121.417 14.4387C125.179 14.4387 126.201 16.5322 126.201 16.5322H126.269V6.6001H130.328V31.9079L126.269 31.9077ZM126.303 22.1283C126.303 20.0551 124.97 17.6997 122.158 17.6997C118.942 17.6997 117.692 20.4989 117.692 23.7251C117.692 26.5418 118.871 29.0981 121.935 29.1406C124.938 29.1406 126.278 26.2779 126.303 23.9114V22.1283Z" fill="#424242"/>
<path id="path10" d="M150.809 23.2507C150.809 29.1954 147.256 32.4156 141.92 32.4156C136.118 32.4156 133.144 28.9423 133.144 23.6233C133.144 17.5382 136.708 14.373 142.344 14.373C147.508 14.373 150.809 17.674 150.809 23.2507ZM146.641 23.3862C146.641 20.7414 145.703 17.8015 142.123 17.8015C138.69 17.8015 137.356 20.3566 137.356 23.4879C137.356 26.8896 138.958 29.0533 142.099 29.0533C145.464 29.0533 146.616 26.4709 146.641 23.3862Z" fill="#424242"/>
<path id="path12" d="M172.283 31.9077H167.867L164.492 19.4868L160.871 31.9077H156.585L151.592 14.7981H155.782L159.043 28.0904L162.854 14.7981H166.784L170.181 28.0559L173.36 14.7981H177.2L172.283 31.9077Z" fill="#424242"/>
<path id="path14" d="M189.768 27.1304C189.768 30.9514 186.303 32.4406 182.83 32.4406C180.568 32.4406 178.315 31.5693 178.315 31.5693V27.5051C178.315 27.5051 180.273 29.2113 183.008 29.2325C184.883 29.2325 185.728 28.6413 185.728 27.5156C185.774 26.6125 185.224 26.1145 184.567 25.7411C184.115 25.47 183.409 25.1368 182.449 24.7415C181.32 24.2558 180.478 23.7871 179.925 23.3353C179.382 22.8835 178.976 22.3527 178.705 21.7428C178.445 21.1328 178.253 20.4626 178.253 19.6493C178.253 16.564 180.826 14.384 184.94 14.384C187.658 14.384 188.836 15.0507 188.836 15.0507V18.9116C188.836 18.9116 186.904 17.5763 184.897 17.5642C183.459 17.5642 182.371 18.0879 182.352 19.273C182.342 20.8006 184.212 21.5452 185.329 21.997C186.956 22.6521 188.146 23.3515 188.812 24.1534C189.479 24.9553 189.768 25.7627 189.768 27.1304Z" fill="#424242"/>
<path id="rect18" d="M19.4519 0H0.492798V18.9591H19.4519V0Z" fill="#424242"/>
<path id="rect20" d="M40.4912 0H21.532V18.9591H40.4912V0Z" fill="#424242"/>
<path id="rect22" d="M19.4519 21.041H0.492798V40.0001H19.4519V21.041Z" fill="#424242"/>
<path id="rect24" d="M40.4912 21.041H21.532V40.0001H40.4912V21.041Z" fill="#424242"/>
</g>
</svg>
