<svg width="136" height="77" viewBox="0 0 136 77" fill="none" xmlns="http://www.w3.org/2000/svg">
<g filter="url(#filter0_d_674_75)">
<rect x="6.0415" y="9" width="115.667" height="57" rx="8" fill="white" shape-rendering="crispEdges"/>
<g clip-path="url(#clip0_674_75)">
<path d="M26.2082 50.0001C28.5082 50.0001 30.3748 48.1334 30.3748 45.8334V41.6667H26.2082C23.9082 41.6667 22.0415 43.5334 22.0415 45.8334C22.0415 48.1334 23.9082 50.0001 26.2082 50.0001Z" fill="#0ACF83"/>
<path d="M22.0415 37.4999C22.0415 35.1999 23.9082 33.3333 26.2082 33.3333H30.3748V41.6666H26.2082C23.9082 41.6666 22.0415 39.7999 22.0415 37.4999Z" fill="#A259FF"/>
<path d="M22.0415 29.1667C22.0415 26.8667 23.9082 25 26.2082 25H30.3748V33.3333H26.2082C23.9082 33.3333 22.0415 31.4667 22.0415 29.1667Z" fill="#F24E1E"/>
<path d="M30.375 25H34.5417C36.8417 25 38.7083 26.8667 38.7083 29.1667C38.7083 31.4667 36.8417 33.3333 34.5417 33.3333H30.375V25Z" fill="#FF7262"/>
<path d="M38.7083 37.4999C38.7083 39.7999 36.8417 41.6666 34.5417 41.6666C32.2417 41.6666 30.375 39.7999 30.375 37.4999C30.375 35.1999 32.2417 33.3333 34.5417 33.3333C36.8417 33.3333 38.7083 35.1999 38.7083 37.4999Z" fill="#1ABCFE"/>
</g>
<path d="M62.244 31.848V33.032H57.396V36.792H61.332V37.976H57.396V43H55.94V31.848H62.244ZM64.7545 32.808C64.4772 32.808 64.2425 32.712 64.0505 32.52C63.8585 32.328 63.7625 32.0933 63.7625 31.816C63.7625 31.5387 63.8585 31.304 64.0505 31.112C64.2425 30.92 64.4772 30.824 64.7545 30.824C65.0212 30.824 65.2452 30.92 65.4265 31.112C65.6185 31.304 65.7145 31.5387 65.7145 31.816C65.7145 32.0933 65.6185 32.328 65.4265 32.52C65.2452 32.712 65.0212 32.808 64.7545 32.808ZM65.4585 34.232V43H64.0025V34.232H65.4585ZM71.556 34.088C72.3133 34.088 72.9747 34.2533 73.54 34.584C74.116 34.9147 74.5427 35.3307 74.82 35.832V34.232H76.292V43.192C76.292 43.992 76.1213 44.7013 75.78 45.32C75.4387 45.9493 74.948 46.44 74.308 46.792C73.6787 47.144 72.9427 47.32 72.1 47.32C70.948 47.32 69.988 47.048 69.22 46.504C68.452 45.96 67.9987 45.2187 67.86 44.28H69.3C69.46 44.8133 69.7907 45.24 70.292 45.56C70.7933 45.8907 71.396 46.056 72.1 46.056C72.9 46.056 73.5507 45.8053 74.052 45.304C74.564 44.8027 74.82 44.0987 74.82 43.192V41.352C74.532 41.864 74.1053 42.2907 73.54 42.632C72.9747 42.9733 72.3133 43.144 71.556 43.144C70.7773 43.144 70.068 42.952 69.428 42.568C68.7987 42.184 68.3027 41.6453 67.94 40.952C67.5773 40.2587 67.396 39.4693 67.396 38.584C67.396 37.688 67.5773 36.904 67.94 36.232C68.3027 35.5493 68.7987 35.0213 69.428 34.648C70.068 34.2747 70.7773 34.088 71.556 34.088ZM74.82 38.6C74.82 37.9387 74.6867 37.3627 74.42 36.872C74.1533 36.3813 73.7907 36.008 73.332 35.752C72.884 35.4853 72.388 35.352 71.844 35.352C71.3 35.352 70.804 35.48 70.356 35.736C69.908 35.992 69.5507 36.3653 69.284 36.856C69.0173 37.3467 68.884 37.9227 68.884 38.584C68.884 39.256 69.0173 39.8427 69.284 40.344C69.5507 40.8347 69.908 41.2133 70.356 41.48C70.804 41.736 71.3 41.864 71.844 41.864C72.388 41.864 72.884 41.736 73.332 41.48C73.7907 41.2133 74.1533 40.8347 74.42 40.344C74.6867 39.8427 74.82 39.2613 74.82 38.6ZM89.2965 34.072C89.9792 34.072 90.5872 34.216 91.1205 34.504C91.6538 34.7813 92.0752 35.2027 92.3845 35.768C92.6938 36.3333 92.8485 37.0213 92.8485 37.832V43H91.4085V38.04C91.4085 37.1653 91.1898 36.4987 90.7525 36.04C90.3258 35.5707 89.7445 35.336 89.0085 35.336C88.2512 35.336 87.6485 35.5813 87.2005 36.072C86.7525 36.552 86.5285 37.2507 86.5285 38.168V43H85.0885V38.04C85.0885 37.1653 84.8698 36.4987 84.4325 36.04C84.0058 35.5707 83.4245 35.336 82.6885 35.336C81.9312 35.336 81.3285 35.5813 80.8805 36.072C80.4325 36.552 80.2085 37.2507 80.2085 38.168V43H78.7525V34.232H80.2085V35.496C80.4965 35.0373 80.8805 34.6853 81.3605 34.44C81.8512 34.1947 82.3898 34.072 82.9765 34.072C83.7125 34.072 84.3632 34.2373 84.9285 34.568C85.4938 34.8987 85.9152 35.384 86.1925 36.024C86.4378 35.4053 86.8432 34.9253 87.4085 34.584C87.9738 34.2427 88.6032 34.072 89.2965 34.072ZM94.6929 38.584C94.6929 37.688 94.8742 36.904 95.2369 36.232C95.5995 35.5493 96.0955 35.0213 96.7249 34.648C97.3649 34.2747 98.0742 34.088 98.8529 34.088C99.6209 34.088 100.288 34.2533 100.853 34.584C101.418 34.9147 101.84 35.3307 102.117 35.832V34.232H103.589V43H102.117V41.368C101.829 41.88 101.397 42.3067 100.821 42.648C100.256 42.9787 99.5942 43.144 98.8369 43.144C98.0582 43.144 97.3542 42.952 96.7249 42.568C96.0955 42.184 95.5995 41.6453 95.2369 40.952C94.8742 40.2587 94.6929 39.4693 94.6929 38.584ZM102.117 38.6C102.117 37.9387 101.984 37.3627 101.717 36.872C101.45 36.3813 101.088 36.008 100.629 35.752C100.181 35.4853 99.6849 35.352 99.1409 35.352C98.5969 35.352 98.1009 35.48 97.6529 35.736C97.2049 35.992 96.8475 36.3653 96.5809 36.856C96.3142 37.3467 96.1809 37.9227 96.1809 38.584C96.1809 39.256 96.3142 39.8427 96.5809 40.344C96.8475 40.8347 97.2049 41.2133 97.6529 41.48C98.1009 41.736 98.5969 41.864 99.1409 41.864C99.6849 41.864 100.181 41.736 100.629 41.48C101.088 41.2133 101.45 40.8347 101.717 40.344C101.984 39.8427 102.117 39.2613 102.117 38.6Z" fill="#2D2D2D"/>
</g>
<defs>
<filter id="filter0_d_674_75" x="0.0415039" y="0" width="135.667" height="77" filterUnits="userSpaceOnUse" color-interpolation-filters="sRGB">
<feFlood flood-opacity="0" result="BackgroundImageFix"/>
<feColorMatrix in="SourceAlpha" type="matrix" values="0 0 0 0 0 0 0 0 0 0 0 0 0 0 0 0 0 0 127 0" result="hardAlpha"/>
<feOffset dx="4" dy="1"/>
<feGaussianBlur stdDeviation="5"/>
<feComposite in2="hardAlpha" operator="out"/>
<feColorMatrix type="matrix" values="0 0 0 0 0 0 0 0 0 0 0 0 0 0 0 0 0 0 0.1 0"/>
<feBlend mode="normal" in2="BackgroundImageFix" result="effect1_dropShadow_674_75"/>
<feBlend mode="normal" in="SourceGraphic" in2="effect1_dropShadow_674_75" result="shape"/>
</filter>
<clipPath id="clip0_674_75">
<rect width="16.6667" height="25" fill="white" transform="translate(22.0415 25)"/>
</clipPath>
</defs>
</svg>
