<svg width="168" height="77" viewBox="0 0 168 77" fill="none" xmlns="http://www.w3.org/2000/svg">
<g filter="url(#filter0_d_674_69)">
<rect x="6.0415" y="9" width="147" height="57" rx="8" fill="white" shape-rendering="crispEdges"/>
<g clip-path="url(#clip0_674_69)">
<path d="M22.0415 27C22.0415 25.8954 22.9369 25 24.0415 25H45.0415C46.1461 25 47.0415 25.8954 47.0415 27V48C47.0415 49.1046 46.1461 50 45.0415 50H24.0415C22.9369 50 22.0415 49.1046 22.0415 48V27Z" fill="#F5DE19"/>
<path d="M38.2984 43.6524C38.4848 44.031 38.7744 44.3492 39.1338 44.5703C39.4932 44.7915 39.9077 44.9066 40.3297 44.9024C41.1812 44.9024 41.7258 44.4766 41.7258 43.8867C41.7258 43.1836 41.1664 42.9321 40.2289 42.5219L39.7148 42.3016C38.2305 41.6696 37.2461 40.8782 37.2461 39.2047C37.2461 37.6633 38.418 36.4891 40.2562 36.4891C40.8513 36.4461 41.4459 36.5793 41.9658 36.872C42.4857 37.1648 42.9079 37.6041 43.1797 38.1352L41.5727 39.1625C41.468 38.8992 41.2857 38.6739 41.0501 38.5165C40.8144 38.3591 40.5365 38.2771 40.2531 38.2813C40.1295 38.2689 40.0047 38.2824 39.8865 38.321C39.7684 38.3595 39.6596 38.4222 39.5671 38.5051C39.4746 38.588 39.4003 38.6893 39.3491 38.8025C39.2979 38.9157 39.2708 39.0383 39.2695 39.1625C39.2695 39.7789 39.6516 40.0289 40.5336 40.4125L41.0477 40.6328C42.7945 41.3821 43.782 42.1453 43.782 43.8617C43.782 45.7125 42.3281 46.7266 40.3758 46.7266C39.6151 46.7751 38.8566 46.6024 38.1919 46.2293C37.5272 45.8563 36.9846 45.2988 36.6297 44.6242L38.2984 43.6524ZM31.0367 43.8305C31.3594 44.4032 31.6531 44.8875 32.3594 44.8875C33.0344 44.8875 33.4609 44.6235 33.4609 43.5961V36.6063H35.5164V43.6235C35.5164 45.7516 34.2664 46.7203 32.4469 46.7203C31.8037 46.7555 31.165 46.5952 30.6146 46.2606C30.0642 45.9259 29.628 45.4326 29.3633 44.8453L31.0367 43.8305Z" fill="#2D2D2D"/>
</g>
<path d="M69.0335 32.742V39.952C69.0335 40.7547 68.7862 41.3987 68.2915 41.884C67.7968 42.36 67.1435 42.598 66.3315 42.598C65.5102 42.598 64.8522 42.3553 64.3575 41.87C63.8628 41.3753 63.6155 40.7033 63.6155 39.854H64.8895C64.8988 40.33 65.0202 40.7173 65.2535 41.016C65.4962 41.3147 65.8555 41.464 66.3315 41.464C66.8075 41.464 67.1622 41.324 67.3955 41.044C67.6288 40.7547 67.7455 40.3907 67.7455 39.952V32.742H69.0335ZM71.0673 38.636C71.0673 37.852 71.226 37.166 71.5433 36.578C71.8607 35.9807 72.2947 35.5187 72.8453 35.192C73.4053 34.8653 74.026 34.702 74.7073 34.702C75.3793 34.702 75.9627 34.8467 76.4573 35.136C76.952 35.4253 77.3207 35.7893 77.5633 36.228V34.828H78.8513V42.5H77.5633V41.072C77.3113 41.52 76.9333 41.8933 76.4293 42.192C75.9347 42.4813 75.356 42.626 74.6933 42.626C74.012 42.626 73.396 42.458 72.8453 42.122C72.2947 41.786 71.8607 41.3147 71.5433 40.708C71.226 40.1013 71.0673 39.4107 71.0673 38.636ZM77.5633 38.65C77.5633 38.0713 77.4467 37.5673 77.2133 37.138C76.98 36.7087 76.6627 36.382 76.2613 36.158C75.8693 35.9247 75.4353 35.808 74.9593 35.808C74.4833 35.808 74.0493 35.92 73.6573 36.144C73.2653 36.368 72.9527 36.6947 72.7193 37.124C72.486 37.5533 72.3693 38.0573 72.3693 38.636C72.3693 39.224 72.486 39.7373 72.7193 40.176C72.9527 40.6053 73.2653 40.9367 73.6573 41.17C74.0493 41.394 74.4833 41.506 74.9593 41.506C75.4353 41.506 75.8693 41.394 76.2613 41.17C76.6627 40.9367 76.98 40.6053 77.2133 40.176C77.4467 39.7373 77.5633 39.2287 77.5633 38.65ZM83.8603 41.324L86.2403 34.828H87.5983L84.5883 42.5H83.1043L80.0943 34.828H81.4663L83.8603 41.324ZM88.3759 38.636C88.3759 37.852 88.5346 37.166 88.8519 36.578C89.1693 35.9807 89.6033 35.5187 90.1539 35.192C90.7139 34.8653 91.3346 34.702 92.0159 34.702C92.6879 34.702 93.2713 34.8467 93.7659 35.136C94.2606 35.4253 94.6293 35.7893 94.8719 36.228V34.828H96.1599V42.5H94.8719V41.072C94.6199 41.52 94.2419 41.8933 93.7379 42.192C93.2433 42.4813 92.6646 42.626 92.0019 42.626C91.3206 42.626 90.7046 42.458 90.1539 42.122C89.6033 41.786 89.1693 41.3147 88.8519 40.708C88.5346 40.1013 88.3759 39.4107 88.3759 38.636ZM94.8719 38.65C94.8719 38.0713 94.7553 37.5673 94.5219 37.138C94.2886 36.7087 93.9713 36.382 93.5699 36.158C93.1779 35.9247 92.7439 35.808 92.2679 35.808C91.7919 35.808 91.3579 35.92 90.9659 36.144C90.5739 36.368 90.2613 36.6947 90.0279 37.124C89.7946 37.5533 89.6779 38.0573 89.6779 38.636C89.6779 39.224 89.7946 39.7373 90.0279 40.176C90.2613 40.6053 90.5739 40.9367 90.9659 41.17C91.3579 41.394 91.7919 41.506 92.2679 41.506C92.7439 41.506 93.1779 41.394 93.5699 41.17C93.9713 40.9367 94.2886 40.6053 94.5219 40.176C94.7553 39.7373 94.8719 39.2287 94.8719 38.65ZM101.029 42.626C100.441 42.626 99.9135 42.528 99.4469 42.332C98.9802 42.1267 98.6115 41.8467 98.3409 41.492C98.0702 41.128 97.9209 40.7127 97.8929 40.246H99.2089C99.2462 40.6287 99.4235 40.9413 99.7409 41.184C100.068 41.4267 100.492 41.548 101.015 41.548C101.5 41.548 101.883 41.4407 102.163 41.226C102.443 41.0113 102.583 40.7407 102.583 40.414C102.583 40.078 102.434 39.8307 102.135 39.672C101.836 39.504 101.374 39.3407 100.749 39.182C100.18 39.0327 99.7129 38.8833 99.3489 38.734C98.9942 38.5753 98.6862 38.3467 98.4249 38.048C98.1729 37.74 98.0469 37.3387 98.0469 36.844C98.0469 36.452 98.1635 36.0927 98.3969 35.766C98.6302 35.4393 98.9615 35.1827 99.3909 34.996C99.8202 34.8 100.31 34.702 100.861 34.702C101.71 34.702 102.396 34.9167 102.919 35.346C103.442 35.7753 103.722 36.3633 103.759 37.11H102.485C102.457 36.7087 102.294 36.3867 101.995 36.144C101.706 35.9013 101.314 35.78 100.819 35.78C100.362 35.78 99.9975 35.878 99.7269 36.074C99.4562 36.27 99.3209 36.5267 99.3209 36.844C99.3209 37.096 99.4002 37.306 99.5589 37.474C99.7269 37.6327 99.9322 37.7633 100.175 37.866C100.427 37.9593 100.772 38.0667 101.211 38.188C101.762 38.3373 102.21 38.4867 102.555 38.636C102.9 38.776 103.194 38.9907 103.437 39.28C103.689 39.5693 103.82 39.9473 103.829 40.414C103.829 40.834 103.712 41.212 103.479 41.548C103.246 41.884 102.914 42.15 102.485 42.346C102.065 42.5327 101.58 42.626 101.029 42.626ZM105.151 38.65C105.151 37.8567 105.31 37.166 105.627 36.578C105.945 35.9807 106.383 35.5187 106.943 35.192C107.513 34.8653 108.161 34.702 108.889 34.702C109.832 34.702 110.607 34.9307 111.213 35.388C111.829 35.8453 112.235 36.48 112.431 37.292H111.059C110.929 36.8253 110.672 36.4567 110.289 36.186C109.916 35.9153 109.449 35.78 108.889 35.78C108.161 35.78 107.573 36.032 107.125 36.536C106.677 37.0307 106.453 37.7353 106.453 38.65C106.453 39.574 106.677 40.288 107.125 40.792C107.573 41.296 108.161 41.548 108.889 41.548C109.449 41.548 109.916 41.4173 110.289 41.156C110.663 40.8947 110.919 40.5213 111.059 40.036H112.431C112.226 40.82 111.815 41.45 111.199 41.926C110.583 42.3927 109.813 42.626 108.889 42.626C108.161 42.626 107.513 42.4627 106.943 42.136C106.383 41.8093 105.945 41.3473 105.627 40.75C105.31 40.1527 105.151 39.4527 105.151 38.65ZM115.405 36.074C115.629 35.6353 115.947 35.2947 116.357 35.052C116.777 34.8093 117.286 34.688 117.883 34.688V36.004H117.547C116.119 36.004 115.405 36.7787 115.405 38.328V42.5H114.131V34.828H115.405V36.074ZM120.012 33.582C119.769 33.582 119.564 33.498 119.396 33.33C119.228 33.162 119.144 32.9567 119.144 32.714C119.144 32.4713 119.228 32.266 119.396 32.098C119.564 31.93 119.769 31.846 120.012 31.846C120.245 31.846 120.441 31.93 120.6 32.098C120.768 32.266 120.852 32.4713 120.852 32.714C120.852 32.9567 120.768 33.162 120.6 33.33C120.441 33.498 120.245 33.582 120.012 33.582ZM120.628 34.828V42.5H119.354V34.828H120.628ZM124.073 36.242C124.325 35.8033 124.699 35.4393 125.193 35.15C125.697 34.8513 126.281 34.702 126.943 34.702C127.625 34.702 128.241 34.8653 128.791 35.192C129.351 35.5187 129.79 35.9807 130.107 36.578C130.425 37.166 130.583 37.852 130.583 38.636C130.583 39.4107 130.425 40.1013 130.107 40.708C129.79 41.3147 129.351 41.786 128.791 42.122C128.241 42.458 127.625 42.626 126.943 42.626C126.29 42.626 125.711 42.4813 125.207 42.192C124.713 41.8933 124.335 41.5247 124.073 41.086V46.14H122.799V34.828H124.073V36.242ZM129.281 38.636C129.281 38.0573 129.165 37.5533 128.931 37.124C128.698 36.6947 128.381 36.368 127.979 36.144C127.587 35.92 127.153 35.808 126.677 35.808C126.211 35.808 125.777 35.9247 125.375 36.158C124.983 36.382 124.666 36.7133 124.423 37.152C124.19 37.5813 124.073 38.0807 124.073 38.65C124.073 39.2287 124.19 39.7373 124.423 40.176C124.666 40.6053 124.983 40.9367 125.375 41.17C125.777 41.394 126.211 41.506 126.677 41.506C127.153 41.506 127.587 41.394 127.979 41.17C128.381 40.9367 128.698 40.6053 128.931 40.176C129.165 39.7373 129.281 39.224 129.281 38.636ZM133.814 35.878V40.4C133.814 40.7733 133.893 41.0393 134.052 41.198C134.211 41.3473 134.486 41.422 134.878 41.422H135.816V42.5H134.668C133.959 42.5 133.427 42.3367 133.072 42.01C132.717 41.6833 132.54 41.1467 132.54 40.4V35.878H131.546V34.828H132.54V32.896H133.814V34.828H135.816V35.878H133.814Z" fill="#2D2D2D"/>
</g>
<defs>
<filter id="filter0_d_674_69" x="0.0415039" y="0" width="167" height="77" filterUnits="userSpaceOnUse" color-interpolation-filters="sRGB">
<feFlood flood-opacity="0" result="BackgroundImageFix"/>
<feColorMatrix in="SourceAlpha" type="matrix" values="0 0 0 0 0 0 0 0 0 0 0 0 0 0 0 0 0 0 127 0" result="hardAlpha"/>
<feOffset dx="4" dy="1"/>
<feGaussianBlur stdDeviation="5"/>
<feComposite in2="hardAlpha" operator="out"/>
<feColorMatrix type="matrix" values="0 0 0 0 0 0 0 0 0 0 0 0 0 0 0 0 0 0 0.1 0"/>
<feBlend mode="normal" in2="BackgroundImageFix" result="effect1_dropShadow_674_69"/>
<feBlend mode="normal" in="SourceGraphic" in2="effect1_dropShadow_674_69" result="shape"/>
</filter>
<clipPath id="clip0_674_69">
<rect width="25" height="25" fill="white" transform="translate(22.0415 25)"/>
</clipPath>
</defs>
</svg>
