<svg width="149" height="77" viewBox="0 0 149 77" fill="none" xmlns="http://www.w3.org/2000/svg">
<g filter="url(#filter0_d_674_77)">
<rect x="6.70801" y="9" width="128.15" height="57" rx="8" fill="white" shape-rendering="crispEdges"/>
<g clip-path="url(#clip0_674_77)">
<path d="M33.7831 49.9536C33.4393 49.9536 33.1183 49.8619 32.8203 49.7014L29.7713 47.8904C29.3128 47.6382 29.542 47.5465 29.6796 47.5007C30.2985 47.2943 30.4131 47.2485 31.055 46.8816C31.1239 46.8358 31.2156 46.8587 31.2842 46.9045L33.6226 48.303C33.7143 48.3488 33.829 48.3488 33.8977 48.303L43.0448 43.0074C43.1365 42.9615 43.1823 42.8699 43.1823 42.7552V32.1868C43.1823 32.0722 43.1365 31.9805 43.0448 31.9346L33.8977 26.6619C33.806 26.616 33.6914 26.616 33.6226 26.6619L24.4756 31.9347C24.3839 31.9806 24.338 32.0952 24.338 32.1869V42.7552C24.338 42.8469 24.3839 42.9615 24.4756 43.0074L26.9745 44.4516C28.3271 45.1393 29.1752 44.337 29.1752 43.5346V33.1038C29.1752 32.9662 29.2899 32.8287 29.4503 32.8287H30.6195C30.7571 32.8287 30.8946 32.9433 30.8946 33.1038V43.5346C30.8946 45.3456 29.9088 46.4001 28.1894 46.4001C27.6622 46.4001 27.2495 46.4001 26.0804 45.827L23.6733 44.4516C23.0772 44.1077 22.7104 43.4658 22.7104 42.7781V32.2098C22.7104 31.5221 23.0772 30.8802 23.6733 30.5363L32.8203 25.2407C33.3934 24.9198 34.1728 24.9198 34.7459 25.2407L43.893 30.5363C44.489 30.8801 44.8558 31.522 44.8558 32.2098V42.7782C44.8558 43.4659 44.489 44.1077 43.893 44.4516L34.7459 49.7474C34.4479 49.8849 34.104 49.9537 33.7831 49.9537M36.6028 42.6865C32.591 42.6865 31.7657 40.8526 31.7657 39.2936C31.7657 39.1561 31.8803 39.0186 32.0408 39.0186H33.2329C33.3704 39.0186 33.4851 39.1103 33.4851 39.2478C33.6685 40.4628 34.1957 41.0589 36.6258 41.0589C38.5515 41.0589 39.3768 40.6233 39.3768 39.5917C39.3768 38.9956 39.1476 38.5601 36.1444 38.262C33.6456 38.0098 32.0867 37.4596 32.0867 35.4653C32.0867 33.6083 33.6455 32.5079 36.259 32.5079C39.1933 32.5079 40.6376 33.5166 40.821 35.7173C40.821 35.7861 40.7981 35.8549 40.7522 35.9237C40.7064 35.9695 40.6376 36.0154 40.5688 36.0154H39.3768C39.2621 36.0154 39.1476 35.9237 39.1245 35.809C38.8495 34.5482 38.1388 34.1356 36.259 34.1356C34.15 34.1356 33.8977 34.8692 33.8977 35.4193C33.8977 36.0842 34.1957 36.2904 37.0384 36.6572C39.8582 37.024 41.1878 37.5513 41.1878 39.5229C41.1649 41.5403 39.5143 42.6865 36.6028 42.6865Z" fill="#539E43"/>
</g>
<path d="M70.8579 43H69.4019L63.5459 34.12V43H62.0899V31.832H63.5459L69.4019 40.696V31.832H70.8579V43ZM77.1639 43.144C76.3426 43.144 75.5959 42.9573 74.9239 42.584C74.2626 42.2107 73.7399 41.6827 73.3559 41C72.9826 40.3067 72.7959 39.5067 72.7959 38.6C72.7959 37.704 72.9879 36.9147 73.3719 36.232C73.7666 35.5387 74.2999 35.0107 74.9719 34.648C75.6439 34.2747 76.3959 34.088 77.2279 34.088C78.0599 34.088 78.8119 34.2747 79.4839 34.648C80.1559 35.0107 80.6839 35.5333 81.0679 36.216C81.4626 36.8987 81.6599 37.6933 81.6599 38.6C81.6599 39.5067 81.4572 40.3067 81.0519 41C80.6572 41.6827 80.1186 42.2107 79.4359 42.584C78.7532 42.9573 77.9959 43.144 77.1639 43.144ZM77.1639 41.864C77.6866 41.864 78.1772 41.7413 78.6359 41.496C79.0946 41.2507 79.4626 40.8827 79.7399 40.392C80.0279 39.9013 80.1719 39.304 80.1719 38.6C80.1719 37.896 80.0332 37.2987 79.7559 36.808C79.4786 36.3173 79.1159 35.9547 78.6679 35.72C78.2199 35.4747 77.7346 35.352 77.2119 35.352C76.6786 35.352 76.1879 35.4747 75.7399 35.72C75.3026 35.9547 74.9506 36.3173 74.6839 36.808C74.4172 37.2987 74.2839 37.896 74.2839 38.6C74.2839 39.3147 74.4119 39.9173 74.6679 40.408C74.9346 40.8987 75.2866 41.2667 75.7239 41.512C76.1612 41.7467 76.6412 41.864 77.1639 41.864ZM83.0303 38.584C83.0303 37.688 83.2116 36.904 83.5743 36.232C83.937 35.5493 84.433 35.0213 85.0623 34.648C85.7023 34.2747 86.417 34.088 87.2063 34.088C87.889 34.088 88.5236 34.248 89.1103 34.568C89.697 34.8773 90.145 35.288 90.4543 35.8V31.16H91.9263V43H90.4543V41.352C90.1663 41.8747 89.7396 42.3067 89.1743 42.648C88.609 42.9787 87.9476 43.144 87.1903 43.144C86.4116 43.144 85.7023 42.952 85.0623 42.568C84.433 42.184 83.937 41.6453 83.5743 40.952C83.2116 40.2587 83.0303 39.4693 83.0303 38.584ZM90.4543 38.6C90.4543 37.9387 90.321 37.3627 90.0543 36.872C89.7876 36.3813 89.425 36.008 88.9663 35.752C88.5183 35.4853 88.0223 35.352 87.4783 35.352C86.9343 35.352 86.4383 35.48 85.9903 35.736C85.5423 35.992 85.185 36.3653 84.9183 36.856C84.6516 37.3467 84.5183 37.9227 84.5183 38.584C84.5183 39.256 84.6516 39.8427 84.9183 40.344C85.185 40.8347 85.5423 41.2133 85.9903 41.48C86.4383 41.736 86.9343 41.864 87.4783 41.864C88.0223 41.864 88.5183 41.736 88.9663 41.48C89.425 41.2133 89.7876 40.8347 90.0543 40.344C90.321 39.8427 90.4543 39.2613 90.4543 38.6ZM102.387 38.28C102.387 38.5573 102.371 38.8507 102.339 39.16H95.3308C95.3841 40.024 95.6775 40.7013 96.2108 41.192C96.7548 41.672 97.4108 41.912 98.1788 41.912C98.8081 41.912 99.3308 41.768 99.7468 41.48C100.173 41.1813 100.472 40.7867 100.643 40.296H102.211C101.976 41.1387 101.507 41.8267 100.803 42.36C100.099 42.8827 99.2241 43.144 98.1788 43.144C97.3468 43.144 96.6001 42.9573 95.9388 42.584C95.2881 42.2107 94.7761 41.6827 94.4028 41C94.0295 40.3067 93.8428 39.5067 93.8428 38.6C93.8428 37.6933 94.0241 36.8987 94.3868 36.216C94.7495 35.5333 95.2561 35.0107 95.9068 34.648C96.5681 34.2747 97.3255 34.088 98.1788 34.088C99.0108 34.088 99.7468 34.2693 100.387 34.632C101.027 34.9947 101.517 35.496 101.859 36.136C102.211 36.7653 102.387 37.48 102.387 38.28ZM100.883 37.976C100.883 37.4213 100.76 36.9467 100.515 36.552C100.269 36.1467 99.9335 35.8427 99.5068 35.64C99.0908 35.4267 98.6268 35.32 98.1148 35.32C97.3788 35.32 96.7495 35.5547 96.2268 36.024C95.7148 36.4933 95.4215 37.144 95.3468 37.976H100.883ZM104.773 43.096C104.495 43.096 104.261 43 104.069 42.808C103.877 42.616 103.781 42.3813 103.781 42.104C103.781 41.8267 103.877 41.592 104.069 41.4C104.261 41.208 104.495 41.112 104.773 41.112C105.039 41.112 105.263 41.208 105.445 41.4C105.637 41.592 105.733 41.8267 105.733 42.104C105.733 42.3813 105.637 42.616 105.445 42.808C105.263 43 105.039 43.096 104.773 43.096ZM108.452 32.808C108.175 32.808 107.94 32.712 107.748 32.52C107.567 32.328 107.476 32.0933 107.476 31.816C107.476 31.5387 107.567 31.304 107.748 31.112C107.94 30.92 108.175 30.824 108.452 30.824C108.729 30.824 108.959 30.92 109.14 31.112C109.332 31.304 109.428 31.5387 109.428 31.816C109.428 32.0933 109.332 32.328 109.14 32.52C108.959 32.712 108.729 32.808 108.452 32.808ZM109.172 44.904C109.172 45.6827 108.975 46.2533 108.58 46.616C108.185 46.9787 107.609 47.16 106.852 47.16H106.004V45.928H106.612C107.017 45.928 107.3 45.848 107.46 45.688C107.631 45.528 107.716 45.256 107.716 44.872V34.232H109.172V44.904ZM114.741 43.144C114.069 43.144 113.466 43.032 112.933 42.808C112.399 42.5733 111.978 42.2533 111.669 41.848C111.359 41.432 111.189 40.9573 111.157 40.424H112.661C112.703 40.8613 112.906 41.2187 113.269 41.496C113.642 41.7733 114.127 41.912 114.725 41.912C115.279 41.912 115.717 41.7893 116.037 41.544C116.357 41.2987 116.517 40.9893 116.517 40.616C116.517 40.232 116.346 39.9493 116.005 39.768C115.663 39.576 115.135 39.3893 114.421 39.208C113.77 39.0373 113.237 38.8667 112.821 38.696C112.415 38.5147 112.063 38.2533 111.765 37.912C111.477 37.56 111.333 37.1013 111.333 36.536C111.333 36.088 111.466 35.6773 111.733 35.304C111.999 34.9307 112.378 34.6373 112.869 34.424C113.359 34.2 113.919 34.088 114.549 34.088C115.519 34.088 116.303 34.3333 116.901 34.824C117.498 35.3147 117.818 35.9867 117.861 36.84H116.405C116.373 36.3813 116.186 36.0133 115.845 35.736C115.514 35.4587 115.066 35.32 114.501 35.32C113.978 35.32 113.562 35.432 113.253 35.656C112.943 35.88 112.789 36.1733 112.789 36.536C112.789 36.824 112.879 37.064 113.061 37.256C113.253 37.4373 113.487 37.5867 113.765 37.704C114.053 37.8107 114.447 37.9333 114.949 38.072C115.578 38.2427 116.09 38.4133 116.485 38.584C116.879 38.744 117.215 38.9893 117.493 39.32C117.781 39.6507 117.93 40.0827 117.941 40.616C117.941 41.096 117.807 41.528 117.541 41.912C117.274 42.296 116.895 42.6 116.405 42.824C115.925 43.0373 115.37 43.144 114.741 43.144Z" fill="#2D2D2D"/>
</g>
<defs>
<filter id="filter0_d_674_77" x="0.708008" y="0" width="148.15" height="77" filterUnits="userSpaceOnUse" color-interpolation-filters="sRGB">
<feFlood flood-opacity="0" result="BackgroundImageFix"/>
<feColorMatrix in="SourceAlpha" type="matrix" values="0 0 0 0 0 0 0 0 0 0 0 0 0 0 0 0 0 0 127 0" result="hardAlpha"/>
<feOffset dx="4" dy="1"/>
<feGaussianBlur stdDeviation="5"/>
<feComposite in2="hardAlpha" operator="out"/>
<feColorMatrix type="matrix" values="0 0 0 0 0 0 0 0 0 0 0 0 0 0 0 0 0 0 0.1 0"/>
<feBlend mode="normal" in2="BackgroundImageFix" result="effect1_dropShadow_674_77"/>
<feBlend mode="normal" in="SourceGraphic" in2="effect1_dropShadow_674_77" result="shape"/>
</filter>
<clipPath id="clip0_674_77">
<rect width="22.15" height="25" fill="white" transform="translate(22.708 25)"/>
</clipPath>
</defs>
</svg>
