<svg width="149" height="77" viewBox="0 0 149 77" fill="none" xmlns="http://www.w3.org/2000/svg">
<g filter="url(#filter0_d_674_82)">
<rect x="6.8584" y="9" width="128.1" height="57" rx="8" fill="white" shape-rendering="crispEdges"/>
<g clip-path="url(#clip0_674_82)">
<path d="M35.3021 25.0071C28.946 25.0071 29.3428 27.7635 29.3428 27.7635L29.3499 30.6191H35.4154V31.4765H26.9408C26.9408 31.4765 22.8735 31.0152 22.8735 37.4285C22.8735 43.8419 26.4235 43.6144 26.4235 43.6144H28.5422V40.6384C28.5422 40.6384 28.4279 37.0884 32.0355 37.0884H38.0514C38.0514 37.0884 41.4313 37.143 41.4313 33.8218V28.3304C41.4313 28.3304 41.9446 25.0071 35.3021 25.0071ZM31.9576 26.9275C32.1009 26.9273 32.2428 26.9555 32.3753 27.0103C32.5077 27.0651 32.6281 27.1454 32.7294 27.2468C32.8308 27.3481 32.9111 27.4685 32.9659 27.6009C33.0207 27.7334 33.0489 27.8753 33.0487 28.0186C33.0489 28.162 33.0207 28.3039 32.9659 28.4364C32.9111 28.5688 32.8308 28.6892 32.7294 28.7905C32.6281 28.8919 32.5077 28.9722 32.3753 29.027C32.2428 29.0818 32.1009 29.11 31.9576 29.1098C31.8142 29.11 31.6723 29.0818 31.5398 29.027C31.4074 28.9722 31.287 28.8919 31.1857 28.7905C31.0843 28.6892 31.004 28.5688 30.9492 28.4364C30.8944 28.3039 30.8662 28.162 30.8664 28.0186C30.8662 27.8753 30.8944 27.7334 30.9492 27.6009C31.004 27.4685 31.0843 27.3481 31.1857 27.2468C31.287 27.1454 31.4074 27.0651 31.5398 27.0103C31.6723 26.9555 31.8142 26.9273 31.9576 26.9275Z" fill="url(#paint0_linear_674_82)"/>
<path d="M35.4827 49.9143C41.8388 49.9143 41.442 47.1579 41.442 47.1579L41.4349 44.3023H35.3693V43.4449H43.8439C43.8439 43.4449 47.9112 43.9062 47.9112 37.4928C47.9112 31.0795 44.3612 31.3069 44.3612 31.3069H42.2425V34.2829C42.2425 34.2829 42.3568 37.8329 38.7492 37.8329H32.7333C32.7333 37.8329 29.3534 37.7783 29.3534 41.0996V46.591C29.3534 46.591 28.8402 49.9143 35.4826 49.9143M38.8272 47.9941C38.6838 47.9942 38.5419 47.9661 38.4094 47.9113C38.277 47.8565 38.1566 47.7761 38.0553 47.6748C37.9539 47.5734 37.8736 47.4531 37.8188 47.3206C37.764 47.1882 37.7359 47.0462 37.736 46.9029C37.7358 46.7595 37.764 46.6176 37.8188 46.4851C37.8735 46.3527 37.9539 46.2323 38.0553 46.131C38.1566 46.0296 38.277 45.9492 38.4094 45.8944C38.5419 45.8396 38.6838 45.8115 38.8272 45.8116C38.9705 45.8115 39.1124 45.8396 39.2449 45.8944C39.3773 45.9492 39.4977 46.0296 39.599 46.1309C39.7004 46.2323 39.7807 46.3526 39.8355 46.4851C39.8903 46.6175 39.9185 46.7595 39.9183 46.9028C39.9185 47.0461 39.8903 47.1881 39.8355 47.3205C39.7807 47.453 39.7004 47.5733 39.599 47.6747C39.4977 47.776 39.3773 47.8564 39.2449 47.9112C39.1124 47.966 38.9705 47.9942 38.8272 47.9941Z" fill="url(#paint1_linear_674_82)"/>
</g>
<path d="M72.6465 35.112C72.6465 36.04 72.3265 36.8133 71.6865 37.432C71.0572 38.04 70.0918 38.344 68.7905 38.344H66.6465V43H65.1905V31.848H68.7905C70.0492 31.848 71.0038 32.152 71.6545 32.76C72.3158 33.368 72.6465 34.152 72.6465 35.112ZM68.7905 37.144C69.6012 37.144 70.1985 36.968 70.5825 36.616C70.9665 36.264 71.1585 35.7627 71.1585 35.112C71.1585 33.736 70.3692 33.048 68.7905 33.048H66.6465V37.144H68.7905ZM82.0081 34.232L76.7281 47.128H75.2241L76.9521 42.904L73.4161 34.232H75.0321L77.7841 41.336L80.5041 34.232H82.0081ZM85.2477 35.432V40.6C85.2477 41.0267 85.3384 41.3307 85.5197 41.512C85.7011 41.6827 86.0157 41.768 86.4637 41.768H87.5357V43H86.2237C85.4131 43 84.8051 42.8133 84.3997 42.44C83.9944 42.0667 83.7917 41.4533 83.7917 40.6V35.432H82.6557V34.232H83.7917V32.024H85.2477V34.232H87.5357V35.432H85.2477ZM93.6519 34.072C94.3132 34.072 94.9105 34.216 95.4439 34.504C95.9772 34.7813 96.3932 35.2027 96.6919 35.768C97.0012 36.3333 97.1559 37.0213 97.1559 37.832V43H95.7159V38.04C95.7159 37.1653 95.4972 36.4987 95.0599 36.04C94.6225 35.5707 94.0252 35.336 93.2679 35.336C92.4999 35.336 91.8865 35.576 91.4279 36.056C90.9799 36.536 90.7559 37.2347 90.7559 38.152V43H89.2999V31.16H90.7559V35.48C91.0439 35.032 91.4385 34.6853 91.9399 34.44C92.4519 34.1947 93.0225 34.072 93.6519 34.072ZM103.358 43.144C102.537 43.144 101.79 42.9573 101.118 42.584C100.457 42.2107 99.9342 41.6827 99.5502 41C99.1769 40.3067 98.9902 39.5067 98.9902 38.6C98.9902 37.704 99.1822 36.9147 99.5662 36.232C99.9609 35.5387 100.494 35.0107 101.166 34.648C101.838 34.2747 102.59 34.088 103.422 34.088C104.254 34.088 105.006 34.2747 105.678 34.648C106.35 35.0107 106.878 35.5333 107.262 36.216C107.657 36.8987 107.854 37.6933 107.854 38.6C107.854 39.5067 107.652 40.3067 107.246 41C106.852 41.6827 106.313 42.2107 105.63 42.584C104.948 42.9573 104.19 43.144 103.358 43.144ZM103.358 41.864C103.881 41.864 104.372 41.7413 104.83 41.496C105.289 41.2507 105.657 40.8827 105.934 40.392C106.222 39.9013 106.366 39.304 106.366 38.6C106.366 37.896 106.228 37.2987 105.95 36.808C105.673 36.3173 105.31 35.9547 104.862 35.72C104.414 35.4747 103.929 35.352 103.406 35.352C102.873 35.352 102.382 35.4747 101.934 35.72C101.497 35.9547 101.145 36.3173 100.878 36.808C100.612 37.2987 100.478 37.896 100.478 38.6C100.478 39.3147 100.606 39.9173 100.862 40.408C101.129 40.8987 101.481 41.2667 101.918 41.512C102.356 41.7467 102.836 41.864 103.358 41.864ZM114.041 34.072C115.107 34.072 115.971 34.3973 116.633 35.048C117.294 35.688 117.625 36.616 117.625 37.832V43H116.185V38.04C116.185 37.1653 115.966 36.4987 115.529 36.04C115.091 35.5707 114.494 35.336 113.737 35.336C112.969 35.336 112.355 35.576 111.897 36.056C111.449 36.536 111.225 37.2347 111.225 38.152V43H109.769V34.232H111.225V35.48C111.513 35.032 111.902 34.6853 112.393 34.44C112.894 34.1947 113.443 34.072 114.041 34.072Z" fill="#2D2D2D"/>
</g>
<defs>
<filter id="filter0_d_674_82" x="0.858398" y="0" width="148.1" height="77" filterUnits="userSpaceOnUse" color-interpolation-filters="sRGB">
<feFlood flood-opacity="0" result="BackgroundImageFix"/>
<feColorMatrix in="SourceAlpha" type="matrix" values="0 0 0 0 0 0 0 0 0 0 0 0 0 0 0 0 0 0 127 0" result="hardAlpha"/>
<feOffset dx="4" dy="1"/>
<feGaussianBlur stdDeviation="5"/>
<feComposite in2="hardAlpha" operator="out"/>
<feColorMatrix type="matrix" values="0 0 0 0 0 0 0 0 0 0 0 0 0 0 0 0 0 0 0.1 0"/>
<feBlend mode="normal" in2="BackgroundImageFix" result="effect1_dropShadow_674_82"/>
<feBlend mode="normal" in="SourceGraphic" in2="effect1_dropShadow_674_82" result="shape"/>
</filter>
<linearGradient id="paint0_linear_674_82" x1="263.483" y1="249.033" x2="1504.26" y2="1477.43" gradientUnits="userSpaceOnUse">
<stop stop-color="#387EB8"/>
<stop offset="1" stop-color="#366994"/>
</linearGradient>
<linearGradient id="paint1_linear_674_82" x1="384.493" y1="414.247" x2="1716.95" y2="1673.86" gradientUnits="userSpaceOnUse">
<stop stop-color="#FFE052"/>
<stop offset="1" stop-color="#FFC331"/>
</linearGradient>
<clipPath id="clip0_674_82">
<rect width="25.1" height="25" fill="white" transform="translate(22.8584 25)"/>
</clipPath>
</defs>
</svg>
