<svg width="156" height="77" viewBox="0 0 156 77" fill="none" xmlns="http://www.w3.org/2000/svg">
<g filter="url(#filter0_d_674_92)">
<rect x="6.8584" y="9" width="135" height="57" rx="8" fill="white" shape-rendering="crispEdges"/>
<g clip-path="url(#clip0_674_92)">
<path d="M41.999 25H28.7178C25.4817 25 22.8584 27.6233 22.8584 30.8594V44.1406C22.8584 47.3767 25.4817 50 28.7178 50H41.999C45.2351 50 47.8584 47.3767 47.8584 44.1406V30.8594C47.8584 27.6233 45.2351 25 41.999 25Z" fill="#242938"/>
<path d="M35.3585 39.3508C36.3647 39.3508 37.1804 38.5351 37.1804 37.5289C37.1804 36.5228 36.3647 35.707 35.3585 35.707C34.3523 35.707 33.5366 36.5228 33.5366 37.5289C33.5366 38.5351 34.3523 39.3508 35.3585 39.3508Z" fill="#00D8FF"/>
<path d="M35.3586 33.8245C37.8047 33.8245 40.0771 34.1754 41.7904 34.7654C43.8548 35.476 45.124 36.5533 45.124 37.5288C45.124 38.5453 43.7789 39.6897 41.562 40.4242C39.886 40.9794 37.6806 41.2693 35.3586 41.2693C32.9779 41.2693 30.7235 40.9972 29.0286 40.418C26.8843 39.6851 25.5928 38.5259 25.5928 37.5288C25.5928 36.5612 26.8047 35.4922 28.84 34.7827C30.5598 34.1831 32.8882 33.8245 35.3582 33.8245H35.3586Z" stroke="#00D8FF" stroke-width="1.56639"/>
<path d="M32.134 35.6873C33.356 33.5684 34.7952 31.7752 36.1622 30.5857C37.8091 29.1524 39.3764 28.5911 40.2214 29.0783C41.1019 29.5861 41.4214 31.3232 40.9502 33.6105C40.5942 35.3397 39.7432 37.395 38.5832 39.4065C37.3938 41.4688 36.032 43.2858 34.6837 44.4644C32.9775 45.9558 31.328 46.4955 30.4642 45.9974C29.6261 45.5144 29.3056 43.9303 29.7077 41.8126C30.0474 40.0232 30.9001 37.827 32.1336 35.6873H32.134Z" stroke="#00D8FF" stroke-width="1.56639"/>
<path d="M32.1368 39.4119C30.9113 37.2953 30.0769 35.1525 29.7287 33.3742C29.3095 31.2315 29.6058 29.5934 30.4501 29.1047C31.3299 28.5953 32.9942 29.1861 34.7405 30.7367C36.0608 31.909 37.4166 33.6724 38.58 35.6819C39.7727 37.7423 40.6667 39.8297 41.0144 41.5863C41.4545 43.8094 41.0983 45.5079 40.2353 46.0074C39.398 46.4922 37.8657 45.979 36.2318 44.5729C34.8513 43.3851 33.3744 41.5496 32.1368 39.4119Z" stroke="#00D8FF" stroke-width="1.56639"/>
</g>
<path d="M70.9624 43.5L68.3064 38.94H66.5464V43.5H65.0904V32.348H68.6904C69.5331 32.348 70.2424 32.492 70.8184 32.78C71.4051 33.068 71.8424 33.4573 72.1304 33.948C72.4184 34.4387 72.5624 34.9987 72.5624 35.628C72.5624 36.396 72.3384 37.0733 71.8904 37.66C71.4531 38.2467 70.7917 38.636 69.9064 38.828L72.7064 43.5H70.9624ZM66.5464 37.772H68.6904C69.4797 37.772 70.0717 37.58 70.4664 37.196C70.8611 36.8013 71.0584 36.2787 71.0584 35.628C71.0584 34.9667 70.8611 34.4547 70.4664 34.092C70.0824 33.7293 69.4904 33.548 68.6904 33.548H66.5464V37.772ZM82.8248 38.78C82.8248 39.0573 82.8088 39.3507 82.7768 39.66H75.7688C75.8221 40.524 76.1154 41.2013 76.6488 41.692C77.1928 42.172 77.8488 42.412 78.6168 42.412C79.2461 42.412 79.7688 42.268 80.1848 41.98C80.6114 41.6813 80.9101 41.2867 81.0808 40.796H82.6488C82.4141 41.6387 81.9448 42.3267 81.2408 42.86C80.5368 43.3827 79.6621 43.644 78.6168 43.644C77.7848 43.644 77.0381 43.4573 76.3768 43.084C75.7261 42.7107 75.2141 42.1827 74.8408 41.5C74.4674 40.8067 74.2808 40.0067 74.2808 39.1C74.2808 38.1933 74.4621 37.3987 74.8248 36.716C75.1874 36.0333 75.6941 35.5107 76.3448 35.148C77.0061 34.7747 77.7634 34.588 78.6168 34.588C79.4488 34.588 80.1848 34.7693 80.8248 35.132C81.4648 35.4947 81.9554 35.996 82.2968 36.636C82.6488 37.2653 82.8248 37.98 82.8248 38.78ZM81.3208 38.476C81.3208 37.9213 81.1981 37.4467 80.9528 37.052C80.7074 36.6467 80.3714 36.3427 79.9448 36.14C79.5288 35.9267 79.0648 35.82 78.5528 35.82C77.8168 35.82 77.1874 36.0547 76.6648 36.524C76.1528 36.9933 75.8594 37.644 75.7848 38.476H81.3208ZM84.2026 39.084C84.2026 38.188 84.384 37.404 84.7466 36.732C85.1093 36.0493 85.6053 35.5213 86.2346 35.148C86.8746 34.7747 87.584 34.588 88.3626 34.588C89.1306 34.588 89.7973 34.7533 90.3626 35.084C90.928 35.4147 91.3493 35.8307 91.6266 36.332V34.732H93.0986V43.5H91.6266V41.868C91.3386 42.38 90.9066 42.8067 90.3306 43.148C89.7653 43.4787 89.104 43.644 88.3466 43.644C87.568 43.644 86.864 43.452 86.2346 43.068C85.6053 42.684 85.1093 42.1453 84.7466 41.452C84.384 40.7587 84.2026 39.9693 84.2026 39.084ZM91.6266 39.1C91.6266 38.4387 91.4933 37.8627 91.2266 37.372C90.96 36.8813 90.5973 36.508 90.1386 36.252C89.6906 35.9853 89.1946 35.852 88.6506 35.852C88.1066 35.852 87.6106 35.98 87.1626 36.236C86.7146 36.492 86.3573 36.8653 86.0906 37.356C85.824 37.8467 85.6906 38.4227 85.6906 39.084C85.6906 39.756 85.824 40.3427 86.0906 40.844C86.3573 41.3347 86.7146 41.7133 87.1626 41.98C87.6106 42.236 88.1066 42.364 88.6506 42.364C89.1946 42.364 89.6906 42.236 90.1386 41.98C90.5973 41.7133 90.96 41.3347 91.2266 40.844C91.4933 40.3427 91.6266 39.7613 91.6266 39.1ZM95.0151 39.1C95.0151 38.1933 95.1965 37.404 95.5591 36.732C95.9218 36.0493 96.4231 35.5213 97.0631 35.148C97.7138 34.7747 98.4551 34.588 99.2871 34.588C100.364 34.588 101.25 34.8493 101.943 35.372C102.647 35.8947 103.111 36.62 103.335 37.548H101.767C101.618 37.0147 101.324 36.5933 100.887 36.284C100.46 35.9747 99.9271 35.82 99.2871 35.82C98.4551 35.82 97.7831 36.108 97.2711 36.684C96.7591 37.2493 96.5031 38.0547 96.5031 39.1C96.5031 40.156 96.7591 40.972 97.2711 41.548C97.7831 42.124 98.4551 42.412 99.2871 42.412C99.9271 42.412 100.46 42.2627 100.887 41.964C101.314 41.6653 101.607 41.2387 101.767 40.684H103.335C103.1 41.58 102.631 42.3 101.927 42.844C101.223 43.3773 100.343 43.644 99.2871 43.644C98.4551 43.644 97.7138 43.4573 97.0631 43.084C96.4231 42.7107 95.9218 42.1827 95.5591 41.5C95.1965 40.8173 95.0151 40.0173 95.0151 39.1ZM107.054 35.932V41.1C107.054 41.5267 107.145 41.8307 107.326 42.012C107.507 42.1827 107.822 42.268 108.27 42.268H109.342V43.5H108.03C107.219 43.5 106.611 43.3133 106.206 42.94C105.801 42.5667 105.598 41.9533 105.598 41.1V35.932H104.462V34.732H105.598V32.524H107.054V34.732H109.342V35.932H107.054ZM111.57 43.596C111.293 43.596 111.058 43.5 110.866 43.308C110.674 43.116 110.578 42.8813 110.578 42.604C110.578 42.3267 110.674 42.092 110.866 41.9C111.058 41.708 111.293 41.612 111.57 41.612C111.837 41.612 112.061 41.708 112.242 41.9C112.434 42.092 112.53 42.3267 112.53 42.604C112.53 42.8813 112.434 43.116 112.242 43.308C112.061 43.5 111.837 43.596 111.57 43.596ZM115.249 33.308C114.972 33.308 114.737 33.212 114.545 33.02C114.364 32.828 114.273 32.5933 114.273 32.316C114.273 32.0387 114.364 31.804 114.545 31.612C114.737 31.42 114.972 31.324 115.249 31.324C115.527 31.324 115.756 31.42 115.937 31.612C116.129 31.804 116.225 32.0387 116.225 32.316C116.225 32.5933 116.129 32.828 115.937 33.02C115.756 33.212 115.527 33.308 115.249 33.308ZM115.969 45.404C115.969 46.1827 115.772 46.7533 115.377 47.116C114.983 47.4787 114.407 47.66 113.649 47.66H112.801V46.428H113.409C113.815 46.428 114.097 46.348 114.257 46.188C114.428 46.028 114.513 45.756 114.513 45.372V34.732H115.969V45.404ZM121.538 43.644C120.866 43.644 120.263 43.532 119.73 43.308C119.197 43.0733 118.775 42.7533 118.466 42.348C118.157 41.932 117.986 41.4573 117.954 40.924H119.458C119.501 41.3613 119.703 41.7187 120.066 41.996C120.439 42.2733 120.925 42.412 121.522 42.412C122.077 42.412 122.514 42.2893 122.834 42.044C123.154 41.7987 123.314 41.4893 123.314 41.116C123.314 40.732 123.143 40.4493 122.802 40.268C122.461 40.076 121.933 39.8893 121.218 39.708C120.567 39.5373 120.034 39.3667 119.618 39.196C119.213 39.0147 118.861 38.7533 118.562 38.412C118.274 38.06 118.13 37.6013 118.13 37.036C118.13 36.588 118.263 36.1773 118.53 35.804C118.797 35.4307 119.175 35.1373 119.666 34.924C120.157 34.7 120.717 34.588 121.346 34.588C122.317 34.588 123.101 34.8333 123.698 35.324C124.295 35.8147 124.615 36.4867 124.658 37.34H123.202C123.17 36.8813 122.983 36.5133 122.642 36.236C122.311 35.9587 121.863 35.82 121.298 35.82C120.775 35.82 120.359 35.932 120.05 36.156C119.741 36.38 119.586 36.6733 119.586 37.036C119.586 37.324 119.677 37.564 119.858 37.756C120.05 37.9373 120.285 38.0867 120.562 38.204C120.85 38.3107 121.245 38.4333 121.746 38.572C122.375 38.7427 122.887 38.9133 123.282 39.084C123.677 39.244 124.013 39.4893 124.29 39.82C124.578 40.1507 124.727 40.5827 124.738 41.116C124.738 41.596 124.605 42.028 124.338 42.412C124.071 42.796 123.693 43.1 123.202 43.324C122.722 43.5373 122.167 43.644 121.538 43.644Z" fill="#2D2D2D"/>
</g>
<defs>
<filter id="filter0_d_674_92" x="0.858398" y="0" width="155" height="77" filterUnits="userSpaceOnUse" color-interpolation-filters="sRGB">
<feFlood flood-opacity="0" result="BackgroundImageFix"/>
<feColorMatrix in="SourceAlpha" type="matrix" values="0 0 0 0 0 0 0 0 0 0 0 0 0 0 0 0 0 0 127 0" result="hardAlpha"/>
<feOffset dx="4" dy="1"/>
<feGaussianBlur stdDeviation="5"/>
<feComposite in2="hardAlpha" operator="out"/>
<feColorMatrix type="matrix" values="0 0 0 0 0 0 0 0 0 0 0 0 0 0 0 0 0 0 0.1 0"/>
<feBlend mode="normal" in2="BackgroundImageFix" result="effect1_dropShadow_674_92"/>
<feBlend mode="normal" in="SourceGraphic" in2="effect1_dropShadow_674_92" result="shape"/>
</filter>
<clipPath id="clip0_674_92">
<rect width="25" height="25" fill="white" transform="translate(22.8584 25)"/>
</clipPath>
</defs>
</svg>
