<svg width="12" height="10" viewBox="0 0 12 10" fill="none" xmlns="http://www.w3.org/2000/svg">
<path d="M4.5855 5.97565L2.64376 4.03391C2.52914 3.91617 2.39242 3.82216 2.24141 3.75729C2.08891 3.69178 1.92488 3.6573 1.75891 3.65586C1.59293 3.65442 1.42833 3.68604 1.27471 3.74889C1.12109 3.81175 0.98153 3.90456 0.864163 4.02193C0.746798 4.13929 0.653981 4.27886 0.59113 4.43248C0.528279 4.5861 0.496652 4.7507 0.498094 4.91667C0.499536 5.08265 0.534019 5.24667 0.599531 5.39918C0.6644 5.55019 0.758407 5.68691 0.876156 5.80153L3.66642 8.59129C3.66644 8.59131 3.66647 8.59134 3.66649 8.59136C3.7872 8.71208 3.9305 8.80784 4.08821 8.87317C4.24595 8.93852 4.41502 8.97216 4.58576 8.97216C4.75651 8.97216 4.92558 8.93852 5.08332 8.87317C5.24105 8.80783 5.38436 8.71206 5.50507 8.59133C5.50508 8.59132 5.50509 8.5913 5.50511 8.59129L11.1266 2.96983L11.1266 2.96978C11.361 2.73537 11.4926 2.41748 11.4926 2.08603C11.4926 1.7546 11.361 1.43674 11.1267 1.20234L4.5855 5.97565ZM4.5855 5.97565L9.35835 1.20234C9.35838 1.2023 9.35841 1.20227 9.35844 1.20224C9.47451 1.08613 9.61231 0.994016 9.76398 0.931165C9.91568 0.868296 10.0783 0.835938 10.2425 0.835938C10.4067 0.835938 10.5693 0.868296 10.7211 0.931165C10.8727 0.994022 11.0105 1.08615 11.1266 1.20228L4.5855 5.97565Z" fill="#F83D48" stroke="#F83D48"/>
</svg>
