<svg width="453" height="235" viewBox="0 0 453 235" fill="none" xmlns="http://www.w3.org/2000/svg">
<g opacity="0.91">
<path opacity="0.2" d="M452.89 217.126C452.89 312.953 384.613 393.592 291.867 417.364C290.082 417.826 288.298 418.253 286.502 418.668C286.016 418.784 285.529 418.888 285.042 419.003C280.431 420.03 275.762 420.93 271.035 421.669C259.356 423.515 247.353 424.484 235.129 424.484C224.771 424.484 214.564 423.792 204.588 422.453C200.811 421.957 197.069 421.357 193.361 420.676C190.917 420.226 188.484 419.73 186.062 419.199C89.4221 398.001 17.3564 315.572 17.3564 217.126C17.3564 102.605 114.865 9.77942 235.129 9.77942C355.393 9.77942 452.89 102.605 452.89 217.126Z" fill="#C9D2F2"/>
</g>
<path d="M426.961 171.313H371.012V192.247H426.961V171.313Z" fill="#EDE9F6"/>
<path d="M358.359 92.5544H302.409V113.488H358.359V92.5544Z" fill="#EDE9F6"/>
<path d="M381.913 328.612L379.805 329.604V126.354L381.913 125.362V328.612Z" fill="#6F82B2"/>
<path d="M387.73 104.544C384.555 103.794 373.455 104.544 373.455 104.544L350.202 151.534H411.504L387.718 104.544H387.73Z" fill="#EDE9F6"/>
<path d="M231.618 355.073L250.863 357.046C294.334 361.5 338.164 361.085 381.531 355.811L387.614 355.073C398.296 348.807 413.462 336.944 416.521 318.884C421.353 290.427 389.688 222.377 349.426 216.918C309.176 211.46 262.472 296.889 262.472 296.889C262.472 296.889 221.677 303.317 218.456 330.008C216.568 345.622 224.609 352.257 231.595 355.084L231.618 355.073Z" fill="#EDE9F6"/>
<path opacity="0.49" d="M378.252 303.271C378.252 303.271 375.726 235.001 360.884 232.232C346.043 229.451 320.159 238.302 315.571 246.472C310.995 254.642 277.928 324.608 277.928 324.608L313.126 326.35L366.075 301.101L378.229 303.282L378.252 303.271Z" fill="#94A3D3"/>
<path d="M329.834 133.901H266.875C263.554 133.901 260.861 136.583 260.861 139.891V195.27C260.861 198.578 263.554 201.259 266.875 201.259H329.834C333.155 201.259 335.847 198.578 335.847 195.27V139.891C335.847 136.583 333.155 133.901 329.834 133.901Z" fill="#EDE9F6"/>
<path d="M328.977 193.666V141.495H267.744V193.666H328.977Z" fill="#B9C3EA"/>
<path opacity="0.25" d="M255.289 216.249C255.289 275.714 224.597 325.439 183.548 337.729C177.175 339.644 170.548 340.66 163.747 340.66C146.078 340.66 129.591 333.863 115.607 322.081C89.5495 300.155 72.2051 260.954 72.2051 216.249C72.2051 147.541 113.185 91.8274 163.747 91.8274C214.309 91.8274 255.277 147.53 255.277 216.249H255.289Z" fill="white"/>
<path d="M192.527 238.152C192.527 238.152 194.971 184.399 193.894 182.945C192.828 181.491 175.611 159.058 175.611 159.058L165.334 186.834L192.538 238.163L192.527 238.152Z" fill="#F83D48"/>
<path d="M41.9531 92.0465L46.9931 107.06C46.9931 107.06 62.4142 103.021 62.2288 102.386C62.0435 101.751 55.6711 88.4346 55.6711 88.4346C55.6711 88.4346 44.7454 88.4 41.9531 92.0465Z" fill="#F3A080"/>
<path d="M120.682 165.278L85.7151 142.337L65.5436 91.2732L35.999 96.2238C35.999 96.2238 50.9451 150.83 61.697 166.593C67.6755 175.375 109.571 199.909 109.571 199.909L120.694 165.278H120.682Z" fill="#F83D48"/>
<path d="M76.0287 145.672C78.1606 144.956 80.2808 144.206 82.4243 143.525C83.5829 143.156 84.6488 144.518 83.8146 145.499C82.8761 146.595 82.1114 147.818 81.5205 149.122C80.976 150.334 80.7327 151.649 80.1765 152.849C79.9101 153.438 79.0295 153.253 78.96 152.642C78.7283 150.795 79.3308 148.822 80.1765 146.999C79.2033 147.345 78.2301 147.691 77.2568 148.037C76.3415 148.372 74.2213 149.422 73.6651 147.91C73.1438 146.491 75.125 145.972 76.0287 145.672Z" fill="#101233"/>
<path d="M45.2439 47.0299C46.8312 46.7068 57.0849 70.5479 57.0849 70.5479C58.3362 66.6244 60.9894 63.1509 64.4421 60.8891C64.4768 60.8661 64.5116 60.843 64.5348 60.8314C64.8592 60.6353 65.2415 60.4853 65.5543 60.6583C65.705 60.7391 65.8092 60.8891 65.9019 61.0276C66.6666 62.2855 66.5507 63.901 66.0757 65.2973C65.6007 66.6821 64.7781 67.9284 64.1524 69.2555C62.9359 71.7942 62.7389 74.633 62.5651 77.4372C62.2523 82.18 54.7445 86.4151 54.7445 86.4151C54.7445 86.4151 54.8951 87.0844 55.0921 88.0076L42.498 91.8273L40.8643 86.2997L37.9446 84.0495C36.0792 82.1685 28.5714 58.4773 29.9502 57.5541C30.3209 57.3003 30.7612 57.0695 31.1899 56.8502C31.8503 56.5271 32.4991 56.2617 32.9394 56.0886C33.2638 55.9617 33.4608 55.904 33.4608 55.904C33.4608 55.904 34.0285 55.1654 34.7816 54.4153C35.2219 53.9537 35.7317 53.4921 36.2299 53.1575C36.7628 52.7882 37.2958 52.592 37.7013 52.719C38.1068 52.8459 39.0569 54.1153 40.1923 55.8347C43.0077 60.0929 47.0397 67.1322 47.3062 66.5898C47.6654 65.8282 42.9151 48.5647 42.9151 48.5647C42.9151 48.5647 43.2047 48.08 43.8072 47.653C44.1664 47.3991 44.6298 47.1453 45.2207 47.0299H45.2439Z" fill="#F3A080"/>
<path d="M37.7129 52.7073C38.1184 52.8343 39.0685 54.1036 40.2039 55.8231C39.4856 57.1386 38.3038 58.3734 37.7245 59.6312C36.8323 61.593 36.3689 63.7624 36.45 65.9204C36.5774 69.4515 38.0141 72.8096 39.752 75.9023C41.49 78.9834 43.5291 81.903 45.0237 85.111C45.8232 86.842 46.4604 88.6307 46.9818 90.4539L41.9418 92.0464L40.8643 86.2881L37.9446 84.0378C36.0792 82.1568 28.5714 58.4657 29.9502 57.5425C30.3209 57.2886 30.7612 57.0578 31.1899 56.8386C31.8503 56.5154 32.4991 56.25 32.9394 56.0769C33.2638 55.95 33.4608 55.8923 33.4608 55.8923C33.4608 55.8923 34.0285 55.1538 34.7816 54.4037C35.2219 53.9421 35.7317 53.4805 36.2299 53.1458C36.7628 52.7766 37.2958 52.5804 37.7013 52.7073H37.7129Z" fill="#EA7C6F"/>
<path d="M34.792 54.4038C34.9774 54.8307 35.1627 55.2692 35.3713 55.7078C36.5647 58.2465 37.955 60.4045 39.0325 61.9046C40.0521 63.3125 40.7936 64.1549 40.8747 64.2587C40.8399 64.1318 40.4808 63.0701 39.8667 61.4546C39.2063 59.7351 38.2678 57.4041 37.0976 54.9C36.808 54.2999 36.5299 53.7114 36.2518 53.1575C35.7536 53.4921 35.2439 53.9537 34.792 54.4153V54.4038Z" fill="#B54B57"/>
<path d="M31.2012 56.8502C33.0318 60.9353 35.1984 63.8895 35.3374 64.0741C35.3027 63.8434 34.6538 60.2314 32.9507 56.0886C32.522 56.2617 31.8732 56.5271 31.2128 56.8502H31.2012Z" fill="#B54B57"/>
<path d="M52.0689 88.9307C52.0573 88.8614 52.0225 88.7691 52.011 88.6999C51.9183 88.3075 51.8372 87.9152 51.7908 87.5113C51.7792 87.1766 51.7908 86.865 51.8835 86.5419C52.1152 85.688 52.822 85.0648 53.5171 84.5109C55.7533 82.6992 58.2211 81.0144 59.6462 78.5218C61.3262 75.5676 61.2451 71.9556 62.3458 68.7476C63.1452 66.4165 64.5703 64.2124 64.5819 61.7429C64.5819 61.4544 64.5587 61.1429 64.5471 60.8313C64.86 60.6467 65.2423 60.4851 65.5667 60.6582C65.7173 60.7505 65.8216 60.889 65.9143 61.039C66.679 62.2968 66.5747 63.9124 66.0881 65.3087C65.6131 66.6935 64.7904 67.9398 64.1648 69.2669C62.9367 71.8056 62.7513 74.6444 62.5659 77.4486C62.2647 82.203 54.7569 86.4381 54.7569 86.4381C54.7569 86.4381 55.0002 87.0612 55.3478 87.7651C55.3709 87.8113 55.4057 87.869 55.4289 87.9382L55.6722 88.4691L52.0689 88.9537V88.9307Z" fill="#F8BF92"/>
<path d="M46.4262 84.4186C46.4262 84.4186 46.3682 84.2455 46.2524 83.9339C46.1365 83.6224 46.0322 83.1492 45.9627 82.5492C45.8121 81.3606 45.9627 79.6065 46.7969 77.9217C47.6427 76.2369 48.9751 75.0829 50.0179 74.4829C50.5392 74.1828 50.9911 73.9867 51.3039 73.8828C51.6168 73.7789 51.8021 73.7328 51.8021 73.7328C51.8021 73.7328 51.6747 73.8713 51.4661 74.1251C51.246 74.3675 50.9564 74.7252 50.6204 75.1753C49.9368 76.0638 49.1489 77.3101 48.419 78.741C47.7007 80.172 47.1677 81.5568 46.8665 82.63C46.7158 83.1608 46.5884 83.6224 46.5305 83.9339C46.4609 84.2455 46.4146 84.4302 46.4146 84.4302L46.4262 84.4186Z" fill="#B54B57"/>
<path d="M176.387 173.933C176.353 173.783 176.26 173.598 176.132 173.379C177.998 170.84 179.434 168.047 179.956 164.966C180.906 159.416 178.009 152.907 172.552 151.453C177.152 147.795 181.891 142.36 179.307 136.625C178.635 135.124 177.488 133.867 176.132 132.92C172.703 130.532 168.601 130.139 164.593 129.828C156.436 129.204 148.001 128.927 140.32 131.755C132.65 134.582 125.872 141.252 125.292 149.376C120.183 149.214 115.189 152.849 113.799 157.754C112.942 160.766 113.394 163.42 114.633 165.728C106.952 174.29 104.368 244.291 105.642 265.097C106.546 280.041 106.152 293.9 105.863 300.524C105.77 302.636 107.635 304.298 109.732 303.974L202.734 289.769C202.734 289.769 196.536 260.4 195.435 251.688C194.334 242.975 176.584 174.798 176.387 173.933Z" fill="#F83D48"/>
<path d="M137.899 152.769C137.899 152.769 131.121 155.377 130.368 161.135C129.615 166.894 135.617 168.855 135.617 168.855L155.058 160.731C155.058 160.731 166.32 158.112 167.687 152.573C169.054 147.034 155.533 145.533 155.533 145.533L137.888 152.757L137.899 152.769Z" fill="#101233"/>
<path d="M135.616 168.856L155.058 160.732C155.706 157.604 155.776 152.746 155.648 148.419C155.509 143.387 155.116 139.06 155.116 139.06L136.844 142.695L137.852 154.454L138.142 157.847L135.604 168.856H135.616Z" fill="#F3A080"/>
<path d="M136.855 142.695L137.863 154.454C141.78 155.054 145.823 154.05 149.38 152.319C151.628 151.223 153.632 149.838 155.66 148.43C155.521 143.399 155.127 139.071 155.127 139.071L136.855 142.706V142.695Z" fill="#EA7C6F"/>
<path d="M159.08 140.237C159.08 140.237 158.443 141.575 156.056 143.237C155.569 143.583 155.013 143.93 154.364 144.287C151.908 145.649 129.639 152.331 126.419 151.523C123.198 150.715 121.379 139.175 121.344 137.975C121.112 130.624 120.753 107.972 120.753 107.972C131.586 84.5459 158.964 100.39 161.965 103.148C164.966 105.906 159.08 140.237 159.08 140.237Z" fill="#F3A080"/>
<path d="M156.056 143.237C155.569 143.583 155.013 143.93 154.364 144.287C151.908 145.649 129.639 152.33 126.418 151.523C123.198 150.715 121.379 139.175 121.344 137.975C122.827 143.122 124.356 150.184 126.697 150.23C130.23 150.299 153.321 144.299 156.056 143.237Z" fill="#F8BF92"/>
<path d="M123.498 115.022C123.498 115.022 125.502 108.779 128.26 110.026C131.017 111.272 130.16 111.803 130.16 111.803L123.51 115.022H123.498Z" fill="#4A0F2F"/>
<path d="M153.762 113.349C153.762 113.349 146.034 105.444 143.23 108.572C141.596 110.395 142.871 111.503 142.871 111.503L153.762 113.349Z" fill="#4A0F2F"/>
<path d="M125.259 131.64C124.819 132.494 122.884 132.378 120.914 131.386C118.945 130.393 117.717 128.893 118.157 128.039C118.597 127.185 120.532 127.301 122.502 128.293C124.46 129.286 125.699 130.786 125.259 131.64Z" fill="#EA7C6F"/>
<path d="M153.668 128.605C153.865 129.99 151.444 131.478 148.269 131.928C145.083 132.378 142.349 131.617 142.152 130.232C141.955 128.847 144.376 127.359 147.551 126.908C150.726 126.458 153.471 127.22 153.668 128.605Z" fill="#EA7C6F"/>
<path d="M130.322 130.636C130.472 131.097 130.936 131.34 131.388 131.536C132.025 131.836 132.674 132.124 133.381 132.228C134.076 132.332 134.632 131.905 135.304 131.697C135.895 131.501 136.405 131.051 136.683 130.509C136.949 129.955 136.995 129.285 136.798 128.708C135.084 129.574 133.021 129.736 131.202 129.135C130.878 129.562 130.171 130.139 130.333 130.636H130.322Z" fill="#EA7C6F"/>
<path d="M134.088 119.061C134.551 123.123 133.404 127.347 130.936 130.613C132.431 131.64 134.366 131.94 136.057 131.282C135.223 132.298 133.891 132.782 132.581 132.621C131.284 132.448 130.09 131.582 129.546 130.382C131.492 127.001 133.346 122.881 134.076 119.061H134.088Z" fill="#DD5B67"/>
<path d="M151.896 123.089C151.896 123.089 146.056 115.98 139.533 122.235C139.533 122.235 145.674 120.538 151.896 123.089Z" fill="#1D1E1E"/>
<path d="M128.944 122.489C128.944 122.489 125.642 117.907 121.795 122.073C121.795 122.073 125.375 120.896 128.944 122.489Z" fill="#1D1E1E"/>
<path d="M127.773 137.779L143.334 134.559C143.334 134.559 144.817 142.729 136.915 143.41C129.025 144.091 127.773 137.779 127.773 137.779Z" fill="white"/>
<path d="M155.858 140.744C160.273 140.894 163.749 138.667 165.707 136.694C166.147 136.244 166.506 135.817 166.784 135.424C168.29 133.313 169.542 125.523 166.529 123.342C164.421 121.819 162.567 123.481 161.651 124.612C161.258 125.096 161.037 125.489 161.037 125.489L155.87 140.744H155.858Z" fill="#F8BF92"/>
<path d="M155.858 140.745C160.273 140.895 163.749 138.667 165.707 136.694C165.88 136.486 166.031 136.29 166.17 136.106C167.676 133.994 168.928 126.204 165.915 124.023C164.212 122.789 162.671 123.643 161.651 124.612C161.258 125.097 161.037 125.489 161.037 125.489L155.87 140.745H155.858Z" fill="#F3A080"/>
<path d="M166.831 129.678C166.923 130.324 166.749 130.959 166.471 131.559C165.29 134.086 162.428 135.794 159.705 137.375C160.609 136.186 161.049 134.778 161.061 133.359C161.061 132.863 161.014 132.367 161.061 131.882C161.269 129.909 166.309 125.881 166.842 129.689L166.831 129.678Z" fill="#EA7C6F"/>
<path d="M158.337 137.975C158.337 137.975 158.395 137.952 158.488 137.906C158.58 137.859 158.742 137.802 158.916 137.709C159.275 137.525 159.785 137.213 160.283 136.729C160.782 136.244 161.257 135.575 161.546 134.755C161.813 133.936 161.882 132.955 161.546 131.963C161.511 131.836 161.454 131.72 161.407 131.593L161.361 131.501C161.361 131.501 161.361 131.501 161.361 131.489L161.407 131.42L161.512 131.282C161.581 131.189 161.651 131.097 161.72 131.005C161.998 130.647 162.299 130.312 162.601 130.012C162.902 129.701 163.215 129.424 163.516 129.182C163.817 128.928 164.118 128.697 164.396 128.535C164.675 128.362 164.976 128.27 165.254 128.27C165.532 128.27 165.775 128.362 165.937 128.466C166.1 128.57 166.181 128.697 166.215 128.778C166.25 128.87 166.239 128.916 166.25 128.916C166.25 128.916 166.273 128.87 166.25 128.778C166.25 128.685 166.192 128.535 166.03 128.397C165.868 128.258 165.613 128.108 165.265 128.062C164.906 128.016 164.512 128.097 164.153 128.247C163.782 128.397 163.446 128.605 163.087 128.835C162.728 129.066 162.369 129.332 162.01 129.632C161.662 129.932 161.315 130.266 160.99 130.636C160.909 130.728 160.828 130.82 160.758 130.924L160.643 131.074L160.492 131.282L160.388 131.432C160.388 131.432 160.434 131.547 160.457 131.593L160.561 131.836C160.608 131.94 160.654 132.043 160.689 132.159C160.99 133.024 160.979 133.89 160.816 134.64C160.643 135.401 160.295 136.048 159.924 136.555C159.542 137.063 159.136 137.421 158.835 137.663C158.684 137.779 158.557 137.859 158.464 137.917C158.383 137.975 158.337 138.009 158.337 138.009V137.975Z" fill="#B54B57"/>
<path d="M132.814 87.5576C132.814 87.5576 143.242 82.9532 152.951 87.5576C162.66 92.162 164.595 98.7512 164.595 98.7512C164.595 98.7512 171.941 100.448 173.586 104.198C175.231 107.948 171.072 114.734 171.072 114.734L132.814 87.5576Z" fill="#5F1234"/>
<path d="M122.549 96.6855C120.22 97.4356 118.54 99.5705 117.752 101.878C116.952 104.186 116.918 106.667 116.929 109.102C116.952 111.537 117.01 114.007 116.385 116.384C119.443 115.599 121.761 112.91 122.514 109.876C126.65 109.945 132.883 102.721 132.883 102.721L134.378 107.833C139.001 108.583 150.714 104.44 150.714 104.44L152.302 107.879C156.681 107.96 159.937 106.114 159.937 106.114L158.408 116.372L161.038 125.466C165.742 122.581 168.152 126.331 168.152 126.331L169.484 121.242L169.82 119.973L170.979 115.542C171.176 115.738 170.874 114.549 171.071 114.745C171.454 112.472 170.214 110.187 168.557 108.548C167.294 107.291 165.788 106.298 164.351 105.271C163.911 104.948 163.482 104.613 163.065 104.279C162.532 103.84 161.999 103.367 161.513 102.871C159.346 100.805 157.492 98.3934 155.337 96.2817C151.34 92.3351 146.3 89.3809 140.797 88.1346C135.305 86.8883 129.384 87.4076 124.321 89.8771C122.757 90.6272 121.286 91.5734 119.675 92.2081C119.606 92.2312 119.536 92.2658 119.478 92.2889C117.926 92.8774 116.188 93.1544 114.589 92.6812C116.002 95.5316 119.409 97.251 122.56 96.7086L122.549 96.6855Z" fill="#38102B"/>
<path d="M164.351 105.26C162.995 109.564 162.555 114.134 163.076 118.6C165.393 118.219 167.827 118.75 169.819 119.973L170.978 115.542C171.175 115.738 170.874 114.549 171.071 114.745C171.453 112.472 170.213 110.187 168.556 108.549C167.294 107.291 165.787 106.298 164.351 105.271V105.26Z" fill="#4A0F2F"/>
<path d="M122.166 103.171C123.082 103.206 123.997 103.217 124.912 103.24C124.75 104.637 124.101 105.964 123.082 106.933C126.418 105.664 129.199 103.021 130.624 99.7668C134.019 99.7322 137.402 98.4051 139.893 96.1087C139.592 98.7859 139.291 101.452 138.989 104.117C144.84 103.586 150.61 102.19 156.067 100.032C156.206 101.555 155.894 103.136 155.152 104.498C157.284 103.944 159.393 103.402 161.513 102.836C159.346 100.771 157.492 98.3589 155.337 96.2472C154.816 95.7279 154.26 95.2201 153.715 94.747C150.008 91.562 145.57 89.1848 140.797 88.1001C135.734 86.9461 130.311 87.3038 125.526 89.2887C125.121 89.4618 124.715 89.6349 124.31 89.831C122.746 90.5811 121.274 91.5274 119.664 92.1621C119.594 92.1852 119.525 92.2198 119.467 92.2429C121.761 93.9507 124.356 95.2432 127.114 96.0164C125.746 98.5782 124.09 100.978 122.166 103.148V103.171Z" fill="#4A0F2F"/>
<path d="M144.574 92.0352C144.956 94.2624 144.887 96.5703 144.354 98.7513C147.737 98.1859 150.969 96.7896 153.704 94.7586C149.996 91.5736 145.559 89.1964 140.785 88.1117C135.722 86.9577 130.3 87.3154 125.515 89.3003C128.678 90.9043 132.223 91.8736 135.734 91.4697C134.853 92.7045 133.973 93.9277 133.104 95.1509C137.089 94.9432 141.017 93.87 144.562 92.0352H144.574Z" fill="#5F1234"/>
<path d="M169.378 169.317C158.916 178.11 145.105 181.699 132.164 185.173C126.567 180.88 122.084 176.991 118.492 170.817C118.249 170.39 117.669 170.69 117.808 171.14C119.905 177.51 126 182.668 131.179 186.638C131.665 187.007 132.175 186.753 132.395 186.338C145.128 184.515 161.14 179.818 170.572 170.702C171.417 169.882 170.282 168.544 169.367 169.305L169.378 169.317Z" fill="#101233"/>
<path d="M217.599 272.402C217.599 274.675 174.175 287.357 165.23 289.319C164.465 289.481 163.956 289.573 163.736 289.573C160.966 289.573 137.122 218.315 137.342 217.218C137.342 217.218 186.815 199.089 188.402 199.92C188.646 200.047 189.549 201.882 190.87 204.882C197.996 220.911 217.588 270.325 217.588 272.402H217.599Z" fill="#C9D2F2"/>
<g style="mix-blend-mode:overlay" opacity="0.59">
<path d="M149.044 223.173L165.23 289.33C164.465 289.492 163.956 289.584 163.736 289.584C160.966 289.584 137.122 218.326 137.342 217.23C137.342 217.23 186.815 199.101 188.402 199.932C188.646 200.059 189.549 201.894 190.87 204.894L149.044 223.173Z" fill="white"/>
</g>
<path d="M190.998 271.075C190.998 271.075 252.856 254.584 255.208 238.556C257.56 222.527 205.388 166.859 195.157 159.785C184.926 152.723 175.6 159.047 175.6 159.047L193.187 197.359L218.283 230.062L182.47 246.01L189.491 266.678L190.986 271.075H190.998Z" fill="#F83D48"/>
<path d="M182.47 245.999L219.348 229.22C219.348 229.22 191.646 194.981 188.668 188.254C188.668 188.254 190.951 197.336 200 209.764C209.048 222.192 214.239 227.962 214.239 227.962L182.47 245.987V245.999Z" fill="#101233"/>
<path d="M218.143 91.285L209.905 104.429L225.233 104.821C225.233 104.821 238.441 126.735 242.925 127.808C247.409 128.882 281.982 112.137 281.982 107.568C281.982 102.998 271.972 65.9436 268.971 65.2166C265.982 64.5012 229.045 43.8681 222.198 49.2917C215.362 54.7154 203.405 70.121 206.498 74.3331C209.592 78.5451 218.143 91.2735 218.143 91.2735V91.285Z" fill="white"/>
<path d="M229.648 97.9089C229.648 97.9089 221.815 60.37 238.801 62.6664C255.797 64.9744 244.061 81.3031 244.061 81.3031C244.061 81.3031 257.825 72.406 263.711 84.1766C269.597 95.9587 229.648 97.8973 229.648 97.8973V97.9089Z" fill="#F83D48"/>
<path d="M126.52 68.5515L114.297 34.5553L98.1572 46.6374L126.52 68.5515Z" fill="white"/>
<path d="M137.932 71.448L150.827 52.742L139.067 48.4031L137.932 71.448Z" fill="white"/>
<path d="M118.12 81.9956L96.6853 70.8251L92.3174 81.4301L118.12 81.9956Z" fill="white"/>
<path d="M86.6993 229.208L73.7112 210.572L65.4619 219.988L86.6993 229.208Z" fill="white"/>
<path d="M295.516 133.37L297.3 127.774L299.085 133.37C301.031 139.475 305.26 144.599 310.902 147.68C305.26 150.749 301.031 155.873 299.085 161.989L297.3 167.586L295.516 161.989C293.57 155.885 289.341 150.761 283.698 147.68C289.341 144.61 293.57 139.487 295.516 133.37Z" fill="#F83D48"/>
<path d="M435.117 217.818L436.345 213.953L437.573 217.818C438.917 222.03 441.837 225.573 445.729 227.697C441.837 229.82 438.917 233.351 437.573 237.575L436.345 241.44L435.117 237.575C433.773 233.363 430.853 229.82 426.96 227.697C430.853 225.573 433.784 222.042 435.117 217.818Z" fill="#F83D48"/>
<path d="M159.449 3.79039L160.352 0.940063L161.256 3.79039C162.241 6.90613 164.407 9.51412 167.281 11.0835C164.407 12.6529 162.252 15.2609 161.256 18.3767L160.352 21.227L159.449 18.3767C158.464 15.2609 156.297 12.6529 153.424 11.0835C156.297 9.51412 158.452 6.90613 159.449 3.79039Z" fill="#F83D48"/>
<path d="M304.703 50.9418L305.932 47.0759L307.16 50.9418C308.504 55.1538 311.423 58.6965 315.316 60.8198C311.423 62.9431 308.504 66.4743 307.16 70.6979L305.932 74.5637L304.703 70.6979C303.36 66.4858 300.44 62.9431 296.547 60.8198C300.44 58.6965 303.371 55.1653 304.703 50.9418Z" fill="#F83D48"/>
<path d="M327.019 4.92121L327.784 2.5094L328.548 4.92121C329.383 7.55228 331.213 9.75638 333.635 11.0835C331.202 12.4105 329.383 14.6146 328.548 17.2457L327.784 19.6575L327.019 17.2457C326.185 14.6146 324.354 12.4105 321.933 11.0835C324.366 9.75638 326.185 7.55228 327.019 4.92121Z" fill="#F83D48"/>
<path d="M286.502 217.899L287.405 215.061L288.309 217.899C289.294 221.004 291.449 223.6 294.311 225.158C291.449 226.716 289.294 229.324 288.309 232.416L287.405 235.255L286.502 232.416C285.517 229.312 283.362 226.716 280.5 225.158C283.362 223.6 285.517 220.992 286.502 217.899Z" fill="#F83D48"/>
<path d="M182.029 45.9568L183.129 42.4949L184.23 45.9568C185.435 49.7303 188.042 52.8922 191.529 54.7963C188.042 56.7003 185.423 59.8622 184.23 63.6358L183.129 67.0977L182.029 63.6358C180.824 59.8622 178.217 56.7003 174.729 54.7963C178.217 52.8922 180.835 49.7303 182.029 45.9568Z" fill="#F83D48"/>
<path d="M44.6061 174.521L45.3939 172.04L46.1818 174.521C47.0392 177.222 48.9161 179.495 51.4187 180.857C48.9161 182.218 47.0507 184.48 46.1818 187.192L45.3939 189.673L44.6061 187.192C43.7487 184.492 41.8717 182.218 39.3691 180.857C41.8717 179.495 43.7371 177.233 44.6061 174.521Z" fill="#F83D48"/>
</svg>
