<svg width="24" height="24" viewBox="0 0 24 24" fill="none" xmlns="http://www.w3.org/2000/svg">
<path fill-rule="evenodd" clip-rule="evenodd" d="M7.99926 8.99778C7.73408 8.99778 7.47977 8.89244 7.29226 8.70493C7.10475 8.51742 6.99941 8.2631 6.99941 7.99793V7.00207C6.46905 7.00207 5.96042 7.21276 5.5854 7.58777C5.21039 7.96279 4.9997 8.47142 4.9997 9.00178V10.3349H18.3311V9.00178C18.3311 8.47142 18.1204 7.96279 17.7454 7.58777C17.3703 7.21276 16.8617 7.00207 16.3314 7.00207V8.00193C16.3314 8.2671 16.226 8.52142 16.0385 8.70893C15.851 8.89644 15.5967 9.00178 15.3315 9.00178C15.0663 9.00178 14.812 8.89644 14.6245 8.70893C14.437 8.52142 14.3317 8.2671 14.3317 8.00193V7.00207H8.99911V7.99793C8.99911 8.2631 8.89377 8.51742 8.70626 8.70493C8.51875 8.89244 8.26444 8.99778 7.99926 8.99778ZM14.3317 5.00237H8.99911V3.99985C8.99911 3.73467 8.89377 3.48036 8.70626 3.29285C8.51875 3.10534 8.26444 3 7.99926 3C7.73408 3 7.47977 3.10534 7.29226 3.29285C7.10475 3.48036 6.99941 3.73467 6.99941 3.99985V5.00237C5.9387 5.00237 4.92143 5.42373 4.1714 6.17377C3.42137 6.9238 3 7.94107 3 9.00178V17.0006C3 18.0613 3.42137 19.0786 4.1714 19.8286C4.92143 20.5786 5.9387 21 6.99941 21H16.3314C17.3921 21 18.4093 20.5786 19.1594 19.8286C19.9094 19.0786 20.3308 18.0613 20.3308 17.0006V9.00178C20.3308 7.94107 19.9094 6.9238 19.1594 6.17377C18.4093 5.42373 17.3921 5.00237 16.3314 5.00237V4.00252C16.3314 3.73734 16.226 3.48302 16.0385 3.29552C15.851 3.10801 15.5967 3.00267 15.3315 3.00267C15.0663 3.00267 14.812 3.10801 14.6245 3.29552C14.437 3.48302 14.3317 3.73734 14.3317 4.00252V5.00237ZM4.9997 12.3346V17.0006C4.9997 17.5309 5.21039 18.0396 5.5854 18.4146C5.96042 18.7896 6.46905 19.0003 6.99941 19.0003H16.3314C16.8617 19.0003 17.3703 18.7896 17.7454 18.4146C18.1204 18.0396 18.3311 17.5309 18.3311 17.0006V12.3346H4.9997Z" fill="#424242"/>
</svg>
